<?xml version="1.0" encoding="UTF-8"?><svg xmlns="http://www.w3.org/2000/svg" xmlns:xlink="http://www.w3.org/1999/xlink" contentScriptType="text/ecmascript" width="375" zoomAndPan="magnify" contentStyleType="text/css" viewBox="0 0 375 374.999991" height="374.999991" preserveAspectRatio="xMidYMid meet" version="1.0"><defs><clipPath id="clip-0"><path d="M 167 158 L 211 158 L 211 221.066406 L 167 221.066406 Z M 167 158 " clip-rule="nonzero"/></clipPath><clipPath id="clip-1"><path d="M 142.300781 156 L 161 156 L 161 169 L 142.300781 169 Z M 142.300781 156 " clip-rule="nonzero"/></clipPath><clipPath id="clip-2"><path d="M 218 163 L 233.050781 163 L 233.050781 173 L 218 173 Z M 218 163 " clip-rule="nonzero"/></clipPath><clipPath id="clip-3"><path d="M 183 110.816406 L 191 110.816406 L 191 122 L 183 122 Z M 183 110.816406 " clip-rule="nonzero"/></clipPath><clipPath id="clip-4"><path d="M 187 187.246094 L 232.5 187.246094 L 232.5 221.746094 L 187 221.746094 Z M 187 187.246094 " clip-rule="nonzero"/></clipPath></defs><rect x="-37.5" width="450" fill="rgb(100%, 100%, 100%)" y="-37.499999" height="449.999989" fill-opacity="1"/><rect x="-37.5" width="450" fill="rgb(100%, 100%, 100%)" y="-37.499999" height="449.999989" fill-opacity="1"/><path fill="rgb(83.529663%, 83.529663%, 83.529663%)" d="M 220.691406 140.496094 C 220.148438 143.949219 223.15625 146.5625 223.15625 146.5625 C 223.15625 146.5625 226.8125 145.035156 227.363281 141.535156 C 227.914062 138.039062 224.871094 135.640625 224.871094 135.640625 C 224.871094 135.640625 221.230469 137.039062 220.691406 140.496094 " fill-opacity="1" fill-rule="nonzero"/><path fill="rgb(83.529663%, 83.529663%, 83.529663%)" d="M 218.636719 129.222656 C 218.09375 132.679688 221.101562 135.289062 221.101562 135.289062 C 221.101562 135.289062 224.761719 133.761719 225.3125 130.265625 C 225.859375 126.765625 222.820312 124.367188 222.820312 124.367188 C 222.820312 124.367188 219.179688 125.765625 218.636719 129.222656 " fill-opacity="1" fill-rule="nonzero"/><g clip-path="url(#clip-0)"><path fill="rgb(83.529663%, 83.529663%, 83.529663%)" d="M 167.421875 172.972656 C 167.421875 172.972656 179.785156 183.199219 180.363281 197.394531 C 180.9375 211.589844 178.246094 221.085938 178.246094 221.085938 L 196.054688 221.085938 C 196.054688 221.085938 189.125 209.191406 193.453125 193.652344 C 197.789062 178.117188 205.972656 171.015625 210.210938 169.003906 L 208.378906 167.949219 C 208.378906 167.949219 201.542969 171.6875 197.304688 176.484375 C 193.070312 181.28125 190.871094 181.863281 190.234375 172.746094 C 189.578125 163.34375 189.578125 158.835938 189.578125 158.835938 L 186.878906 158.835938 C 186.878906 158.835938 186.609375 173.988281 182.46875 178.019531 C 178.324219 182.046875 175.042969 175.675781 168.5625 171.113281 L 167.421875 172.972656 " fill-opacity="1" fill-rule="nonzero"/></g><path fill="rgb(83.529663%, 83.529663%, 83.529663%)" d="M 181.125 159.324219 C 181.125 166.90625 173.800781 171.496094 173.800781 171.496094 C 173.800781 171.496094 166.476562 167.003906 166.476562 159.324219 C 166.476562 151.644531 173.800781 147.523438 173.800781 147.523438 C 173.800781 147.523438 181.125 151.738281 181.125 159.324219 " fill-opacity="1" fill-rule="nonzero"/><path fill="rgb(83.529663%, 83.529663%, 83.529663%)" d="M 185.28125 141.316406 C 184.324219 146.34375 178.890625 148.464844 178.890625 148.464844 C 178.890625 148.464844 174.601562 144.566406 175.574219 139.480469 C 176.546875 134.390625 181.917969 132.578125 181.917969 132.578125 C 181.917969 132.578125 186.242188 136.289062 185.28125 141.316406 " fill-opacity="1" fill-rule="nonzero"/><path fill="rgb(83.529663%, 83.529663%, 83.529663%)" d="M 191.246094 152.378906 C 189.074219 157.019531 183.285156 157.742188 183.285156 157.742188 C 183.285156 157.742188 180.09375 152.914062 182.289062 148.21875 C 184.488281 143.523438 190.144531 143.085938 190.144531 143.085938 C 190.144531 143.085938 193.414062 147.742188 191.246094 152.378906 " fill-opacity="1" fill-rule="nonzero"/><path fill="rgb(83.529663%, 83.529663%, 83.529663%)" d="M 164.234375 138.054688 C 165.828125 141.171875 163.789062 144.585938 163.789062 144.585938 C 163.789062 144.585938 159.832031 144.265625 158.21875 141.113281 C 156.605469 137.957031 158.746094 134.738281 158.746094 134.738281 C 158.746094 134.738281 162.640625 134.941406 164.234375 138.054688 " fill-opacity="1" fill-rule="nonzero"/><g clip-path="url(#clip-1)"><path fill="rgb(83.529663%, 83.529663%, 83.529663%)" d="M 152.484375 157.125 C 158.078125 158.628906 160.007812 164.898438 160.007812 164.898438 C 160.007812 164.898438 155.242188 169.367188 149.582031 167.84375 C 143.921875 166.324219 142.332031 160.148438 142.332031 160.148438 C 142.332031 160.148438 146.890625 155.621094 152.484375 157.125 " fill-opacity="1" fill-rule="nonzero"/></g><path fill="rgb(83.529663%, 83.529663%, 83.529663%)" d="M 163.648438 165.6875 C 167.054688 166.519531 168.316406 170.289062 168.316406 170.289062 C 168.316406 170.289062 165.492188 173.066406 162.039062 172.222656 C 158.585938 171.382812 157.535156 167.660156 157.535156 167.660156 C 157.535156 167.660156 160.234375 164.855469 163.648438 165.6875 " fill-opacity="1" fill-rule="nonzero"/><path fill="rgb(83.529663%, 83.529663%, 83.529663%)" d="M 151.796875 147.253906 C 155.445312 150.121094 154.882812 155.351562 154.882812 155.351562 C 154.882812 155.351562 149.953125 157.148438 146.261719 154.246094 C 142.566406 151.34375 143.355469 146.289062 143.355469 146.289062 C 143.355469 146.289062 148.152344 144.386719 151.796875 147.253906 " fill-opacity="1" fill-rule="nonzero"/><path fill="rgb(83.529663%, 83.529663%, 83.529663%)" d="M 173.800781 146.050781 C 173.800781 146.050781 174.234375 146.296875 174.898438 146.78125 C 174.917969 146.695312 174.941406 146.605469 174.957031 146.515625 C 175.914062 141.488281 171.59375 137.777344 171.59375 137.777344 C 171.59375 137.777344 166.21875 139.589844 165.25 144.679688 C 164.605469 148.050781 166.273438 150.898438 167.46875 152.4375 C 169.898438 148.25 173.800781 146.050781 173.800781 146.050781 " fill-opacity="1" fill-rule="nonzero"/><path fill="rgb(83.529663%, 83.529663%, 83.529663%)" d="M 165.578125 159.296875 C 165.578125 157.078125 166.125 155.121094 166.9375 153.441406 C 165.757812 151.894531 164.257812 149.3125 164.273438 146.21875 C 161.3125 144.785156 158.582031 144.585938 158.582031 144.585938 C 158.582031 144.585938 153.785156 151.46875 157.140625 158.382812 C 159.523438 163.296875 164.535156 165.160156 167.234375 165.828125 C 166.261719 163.972656 165.578125 161.785156 165.578125 159.296875 " fill-opacity="1" fill-rule="nonzero"/><path fill="rgb(83.529663%, 83.529663%, 83.529663%)" d="M 197.386719 149.824219 C 191.707031 154.878906 193.148438 163.375 193.148438 163.375 C 193.148438 163.375 201.394531 165.824219 207.144531 160.707031 C 212.890625 155.59375 211.101562 147.410156 211.101562 147.410156 C 211.101562 147.410156 203.066406 144.773438 197.386719 149.824219 " fill-opacity="1" fill-rule="nonzero"/><path fill="rgb(83.529663%, 83.529663%, 83.529663%)" d="M 208.097656 134.746094 C 204.972656 138.804688 207.003906 144.253906 207.003906 144.253906 C 207.003906 144.253906 212.777344 144.84375 215.941406 140.734375 C 219.105469 136.621094 216.882812 131.421875 216.882812 131.421875 C 216.882812 131.421875 211.222656 130.683594 208.097656 134.746094 " fill-opacity="1" fill-rule="nonzero"/><path fill="rgb(83.529663%, 83.529663%, 83.529663%)" d="M 195.84375 137.683594 C 193.816406 142.386719 197.132812 147.171875 197.132812 147.171875 C 197.132812 147.171875 202.875 146.324219 204.925781 141.566406 C 206.976562 136.804688 203.535156 132.308594 203.535156 132.308594 C 203.535156 132.308594 197.867188 132.980469 195.84375 137.683594 " fill-opacity="1" fill-rule="nonzero"/><path fill="rgb(83.529663%, 83.529663%, 83.529663%)" d="M 224.558594 148.210938 C 221.164062 149.101562 219.96875 152.894531 219.96875 152.894531 C 219.96875 152.894531 222.84375 155.617188 226.277344 154.71875 C 229.714844 153.820312 230.699219 150.082031 230.699219 150.082031 C 230.699219 150.082031 227.953125 147.320312 224.558594 148.210938 " fill-opacity="1" fill-rule="nonzero"/><path fill="rgb(83.529663%, 83.529663%, 83.529663%)" d="M 220.308594 170.859375 C 215.457031 167.707031 209.476562 170.445312 209.476562 170.445312 C 209.476562 170.445312 209.304688 176.964844 214.21875 180.15625 C 219.128906 183.351562 224.808594 180.417969 224.808594 180.417969 C 224.808594 180.417969 225.15625 174.015625 220.308594 170.859375 " fill-opacity="1" fill-rule="nonzero"/><g clip-path="url(#clip-2)"><path fill="rgb(83.529663%, 83.529663%, 83.529663%)" d="M 226.6875 163.441406 C 222.113281 162.644531 218.570312 166.542969 218.570312 166.542969 C 218.570312 166.542969 220.511719 171.402344 225.144531 172.214844 C 229.777344 173.027344 233.035156 169.074219 233.035156 169.074219 C 233.035156 169.074219 231.269531 164.246094 226.6875 163.441406 " fill-opacity="1" fill-rule="nonzero"/></g><path fill="rgb(83.529663%, 83.529663%, 83.529663%)" d="M 212.199219 146.429688 C 212.199219 146.429688 211.730469 146.273438 210.921875 146.101562 C 210.976562 146.027344 211.027344 145.953125 211.082031 145.878906 C 214.210938 141.820312 219.863281 142.558594 219.863281 142.558594 C 219.863281 142.558594 222.085938 147.761719 218.921875 151.867188 C 216.828125 154.59375 213.585938 155.253906 211.636719 155.386719 C 213.15625 150.796875 212.199219 146.429688 212.199219 146.429688 " fill-opacity="1" fill-rule="nonzero"/><path fill="rgb(83.529663%, 83.529663%, 83.529663%)" d="M 207.757812 161.363281 C 209.421875 159.882812 210.523438 158.175781 211.242188 156.453125 C 213.179688 156.296875 216.113281 155.695312 218.421875 153.617188 C 221.46875 154.867188 223.4375 156.761719 223.4375 156.761719 C 223.4375 156.761719 221.476562 164.910156 214.066406 167.023438 C 208.796875 168.527344 204.0625 166.042969 201.769531 164.480469 C 203.804688 163.96875 205.898438 163.019531 207.757812 161.363281 " fill-opacity="1" fill-rule="nonzero"/><path fill="rgb(83.529663%, 83.529663%, 83.529663%)" d="M 175.914062 125.484375 C 177.179688 129.332031 181.660156 130.449219 181.660156 130.449219 C 181.660156 130.449219 184.625 126.957031 183.347656 123.0625 C 182.066406 119.167969 177.664062 118.289062 177.664062 118.289062 C 177.664062 118.289062 174.652344 121.636719 175.914062 125.484375 " fill-opacity="1" fill-rule="nonzero"/><path fill="rgb(83.529663%, 83.529663%, 83.529663%)" d="M 193.976562 125.632812 C 196.457031 130.113281 202.28125 130.449219 202.28125 130.449219 C 202.28125 130.449219 205.144531 125.417969 202.628906 120.882812 C 200.121094 116.34375 194.445312 116.285156 194.445312 116.285156 C 194.445312 116.285156 191.5 121.152344 193.976562 125.632812 " fill-opacity="1" fill-rule="nonzero"/><path fill="rgb(83.529663%, 83.529663%, 83.529663%)" d="M 164.945312 183.644531 C 168.292969 179.761719 166.570312 174.207031 166.570312 174.207031 C 166.570312 174.207031 160.839844 173.300781 157.453125 177.230469 C 154.0625 181.160156 155.992188 186.476562 155.992188 186.476562 C 155.992188 186.476562 161.601562 187.527344 164.945312 183.644531 " fill-opacity="1" fill-rule="nonzero"/><path fill="rgb(83.529663%, 83.529663%, 83.529663%)" d="M 204.625 125.304688 C 204.078125 128.757812 207.085938 131.367188 207.085938 131.367188 C 207.085938 131.367188 210.746094 129.84375 211.296875 126.34375 C 211.847656 122.847656 208.804688 120.445312 208.804688 120.445312 C 208.804688 120.445312 205.167969 121.847656 204.625 125.304688 " fill-opacity="1" fill-rule="nonzero"/><path fill="rgb(83.529663%, 83.529663%, 83.529663%)" d="M 157.894531 127.320312 C 157.351562 130.777344 160.355469 133.386719 160.355469 133.386719 C 160.355469 133.386719 164.015625 131.859375 164.566406 128.363281 C 165.117188 124.863281 162.074219 122.464844 162.074219 122.464844 C 162.074219 122.464844 158.4375 123.863281 157.894531 127.320312 " fill-opacity="1" fill-rule="nonzero"/><path fill="rgb(83.529663%, 83.529663%, 83.529663%)" d="M 148.753906 129.222656 C 148.210938 132.679688 151.21875 135.289062 151.21875 135.289062 C 151.21875 135.289062 154.878906 133.761719 155.429688 130.265625 C 155.976562 126.765625 152.9375 124.367188 152.9375 124.367188 C 152.9375 124.367188 149.296875 125.765625 148.753906 129.222656 " fill-opacity="1" fill-rule="nonzero"/><g clip-path="url(#clip-3)"><path fill="rgb(83.529663%, 83.529663%, 83.529663%)" d="M 183.417969 115.679688 C 182.875 119.136719 185.878906 121.746094 185.878906 121.746094 C 185.878906 121.746094 189.539062 120.21875 190.089844 116.722656 C 190.640625 113.226562 187.597656 110.824219 187.597656 110.824219 C 187.597656 110.824219 183.960938 112.222656 183.417969 115.679688 " fill-opacity="1" fill-rule="nonzero"/></g><path fill="rgb(83.529663%, 83.529663%, 83.529663%)" d="M 149.285156 142.9375 C 151.265625 145.820312 155.25 145.667969 155.25 145.667969 C 155.25 145.667969 156.863281 142.058594 154.859375 139.132812 C 152.847656 136.210938 148.988281 136.542969 148.988281 136.542969 C 148.988281 136.542969 147.300781 140.046875 149.285156 142.9375 " fill-opacity="1" fill-rule="nonzero"/><path fill="rgb(83.529663%, 83.529663%, 83.529663%)" d="M 184.765625 132.429688 C 186.015625 138.066406 192.214844 140.277344 192.214844 140.277344 C 192.214844 140.277344 196.910156 135.738281 195.644531 130.03125 C 194.378906 124.328125 188.257812 122.464844 188.257812 122.464844 C 188.257812 122.464844 183.511719 126.796875 184.765625 132.429688 " fill-opacity="1" fill-rule="nonzero"/><path fill="rgb(83.529663%, 83.529663%, 83.529663%)" d="M 166.390625 128.8125 C 163.820312 132.667969 165.984375 137.464844 165.984375 137.464844 C 165.984375 137.464844 171.234375 137.644531 173.835938 133.742188 C 176.4375 129.839844 174.113281 125.28125 174.113281 125.28125 C 174.113281 125.28125 168.964844 124.957031 166.390625 128.8125 " fill-opacity="1" fill-rule="nonzero"/><g clip-path="url(#clip-4)"><path fill="rgb(18.03894%, 71.369934%, 68.238831%)" d="M 187.445312 205.015625 C 188.929688 205.660156 190.410156 206.160156 191.824219 206.628906 C 193.097656 207.058594 194.367188 207.523438 195.675781 208.058594 L 199.242188 210.566406 L 198.429688 211.75 C 197.6875 212.824219 197.898438 214.367188 198.886719 215.152344 L 199.207031 215.402344 C 199.59375 215.726562 200.089844 215.90625 200.617188 215.90625 C 200.726562 215.90625 200.832031 215.90625 200.972656 215.871094 C 201.007812 215.871094 201.042969 215.871094 201.078125 215.835938 C 201.183594 216.40625 201.464844 216.945312 201.960938 217.304688 L 202.382812 217.660156 C 202.808594 217.984375 203.269531 218.164062 203.796875 218.164062 C 203.902344 218.164062 204.007812 218.164062 204.117188 218.128906 C 204.222656 218.734375 204.503906 219.308594 205 219.738281 C 205.421875 220.0625 205.882812 220.242188 206.410156 220.242188 C 206.515625 220.242188 206.621094 220.242188 206.765625 220.203125 C 207.011719 220.167969 207.257812 220.097656 207.503906 219.953125 C 207.648438 220.347656 207.894531 220.671875 208.246094 220.957031 L 208.601562 221.242188 C 208.988281 221.566406 209.484375 221.746094 210.011719 221.746094 C 210.121094 221.746094 210.226562 221.746094 210.367188 221.710938 C 211.003906 221.601562 211.566406 221.28125 211.921875 220.742188 L 212.628906 219.703125 L 212.945312 219.917969 C 213.296875 220.167969 213.722656 220.3125 214.144531 220.3125 C 214.285156 220.3125 214.429688 220.3125 214.570312 220.277344 C 215.132812 220.167969 215.628906 219.8125 215.945312 219.273438 C 216.125 218.988281 216.230469 218.699219 216.265625 218.378906 L 217.078125 218.914062 C 217.429688 219.164062 217.855469 219.308594 218.277344 219.308594 C 218.417969 219.308594 218.5625 219.308594 218.703125 219.273438 C 219.265625 219.164062 219.761719 218.808594 220.078125 218.304688 C 220.257812 218.019531 220.363281 217.734375 220.398438 217.410156 L 220.433594 217.445312 C 220.785156 217.695312 221.210938 217.839844 221.632812 217.839844 C 221.773438 217.839844 221.914062 217.839844 222.058594 217.804688 C 222.621094 217.695312 223.117188 217.339844 223.433594 216.800781 C 224.070312 215.796875 223.789062 214.4375 222.871094 213.71875 C 223.082031 213.578125 223.257812 213.363281 223.433594 213.113281 C 224.070312 212.109375 223.824219 210.78125 222.90625 210.066406 L 223.503906 209.242188 L 231.945312 203.296875 C 232.265625 203.082031 232.335938 202.613281 232.125 202.292969 C 231.910156 201.96875 231.453125 201.898438 231.132812 202.113281 L 226.824219 205.15625 L 221.527344 195.84375 L 231.875 189.394531 C 232.195312 189.179688 232.300781 188.75 232.125 188.390625 C 231.945312 188.035156 231.488281 187.960938 231.132812 188.140625 L 220.363281 194.910156 C 220.328125 194.910156 220.257812 194.949219 220.21875 194.984375 C 220.148438 195.019531 220.113281 195.054688 220.078125 195.089844 L 216.652344 197.242188 L 210.011719 196.09375 C 208.988281 195.84375 207.328125 195.84375 205.773438 196.597656 C 205.703125 196.558594 205.667969 196.523438 205.597656 196.488281 L 202.632812 195.449219 C 202.5625 195.378906 202.492188 195.34375 202.421875 195.304688 C 200.300781 194.304688 197.863281 192.871094 195.496094 191.507812 C 192.953125 190.003906 190.304688 188.464844 188.011719 187.425781 C 187.65625 187.246094 187.234375 187.425781 187.089844 187.78125 C 186.914062 188.140625 187.089844 188.570312 187.445312 188.714844 C 189.667969 189.753906 192.285156 191.257812 194.792969 192.726562 C 195.53125 193.15625 196.308594 193.621094 197.050781 194.050781 L 191.542969 205.050781 C 190.375 204.65625 189.175781 204.226562 188.011719 203.726562 C 187.65625 203.582031 187.234375 203.761719 187.089844 204.121094 C 186.914062 204.476562 187.089844 204.871094 187.445312 205.015625 Z M 223.753906 204.90625 C 224.140625 204.90625 224.457031 205.230469 224.457031 205.625 C 224.457031 206.019531 224.140625 206.339844 223.753906 206.339844 C 223.363281 206.339844 223.046875 206.019531 223.046875 205.625 C 223.046875 205.230469 223.363281 204.90625 223.753906 204.90625 Z M 201.464844 213.933594 L 201.359375 214.078125 C 201.21875 214.292969 201.007812 214.4375 200.761719 214.472656 C 200.511719 214.507812 200.300781 214.4375 200.089844 214.292969 L 199.769531 214.042969 C 199.347656 213.71875 199.277344 213.039062 199.59375 212.609375 L 201.925781 209.242188 C 202.066406 209.027344 202.277344 208.882812 202.527344 208.847656 C 202.773438 208.8125 202.984375 208.882812 203.195312 209.027344 L 203.515625 209.277344 C 203.9375 209.601562 204.007812 210.28125 203.726562 210.710938 Z M 204.503906 216.371094 C 204.363281 216.585938 204.152344 216.730469 203.902344 216.765625 C 203.65625 216.800781 203.445312 216.730469 203.230469 216.585938 L 202.808594 216.226562 C 202.382812 215.90625 202.3125 215.226562 202.597656 214.796875 L 204.820312 211.570312 L 204.925781 211.425781 C 205.070312 211.210938 205.28125 211.070312 205.527344 211.035156 C 205.773438 210.996094 205.988281 211.070312 206.199219 211.210938 L 206.621094 211.570312 C 207.046875 211.894531 207.117188 212.574219 206.800781 213.003906 Z M 207.71875 217.589844 C 207.683594 217.625 207.683594 217.660156 207.648438 217.660156 L 207.117188 218.414062 C 206.976562 218.628906 206.765625 218.773438 206.515625 218.808594 C 206.269531 218.84375 206.058594 218.773438 205.847656 218.628906 C 205.421875 218.304688 205.351562 217.625 205.667969 217.160156 L 208 213.792969 C 208.140625 213.578125 208.351562 213.433594 208.601562 213.398438 C 208.636719 213.398438 208.671875 213.398438 208.742188 213.398438 C 208.917969 213.398438 209.128906 213.46875 209.273438 213.578125 C 209.695312 213.898438 209.765625 214.542969 209.484375 214.972656 Z M 212.628906 217.125 L 210.683594 219.917969 C 210.542969 220.132812 210.332031 220.277344 210.085938 220.3125 C 209.835938 220.347656 209.625 220.277344 209.414062 220.132812 L 209.058594 219.847656 C 208.636719 219.523438 208.566406 218.878906 208.847656 218.449219 L 210.613281 215.90625 C 210.648438 215.871094 210.648438 215.835938 210.683594 215.835938 L 210.824219 215.621094 C 210.96875 215.402344 211.179688 215.261719 211.425781 215.226562 C 211.460938 215.226562 211.496094 215.226562 211.566406 215.226562 C 211.742188 215.226562 211.957031 215.296875 212.097656 215.402344 L 212.449219 215.691406 C 212.839844 216.011719 212.945312 216.65625 212.628906 217.125 Z M 214.675781 218.519531 C 214.570312 218.699219 214.394531 218.808594 214.214844 218.878906 C 214.039062 218.914062 213.828125 218.878906 213.652344 218.773438 L 213.367188 218.558594 L 213.792969 217.949219 C 213.96875 217.695312 214.074219 217.410156 214.144531 217.125 L 214.464844 217.339844 C 214.816406 217.589844 214.921875 218.128906 214.675781 218.519531 Z M 209.730469 197.492188 C 209.730469 197.492188 209.765625 197.492188 209.765625 197.492188 L 216.511719 198.636719 L 222.199219 208.597656 L 221.667969 209.277344 L 211.425781 202.472656 C 210.4375 201.71875 209.484375 201.398438 208.671875 201.539062 C 207.964844 201.683594 207.578125 202.113281 207.46875 202.292969 L 205.597656 204.691406 C 204.820312 205.515625 204.117188 205.945312 203.550781 205.875 C 203.089844 205.839844 202.773438 205.480469 202.5625 205.195312 C 203.054688 204.335938 203.375 203.367188 203.375 203.332031 L 204.46875 199.964844 C 205.953125 196.667969 209.554688 197.457031 209.730469 197.492188 Z M 202.242188 196.847656 L 204.398438 197.597656 C 203.902344 198.066406 203.480469 198.671875 203.160156 199.425781 C 203.160156 199.460938 203.125 199.460938 203.125 199.496094 L 202.03125 202.9375 C 202.03125 202.9375 201.785156 203.796875 201.359375 204.476562 C 201.078125 204.980469 201.078125 205.589844 201.394531 206.019531 C 201.925781 206.804688 202.667969 207.234375 203.445312 207.308594 C 204.46875 207.378906 205.527344 206.84375 206.621094 205.660156 C 206.621094 205.660156 206.660156 205.625 206.660156 205.625 L 208.566406 203.1875 C 208.566406 203.152344 208.601562 203.152344 208.601562 203.117188 C 208.601562 203.117188 208.707031 203.007812 208.917969 202.972656 C 209.164062 202.9375 209.660156 202.972656 210.578125 203.652344 C 210.578125 203.652344 210.613281 203.6875 210.613281 203.6875 L 221.457031 210.890625 C 221.527344 210.925781 221.597656 210.960938 221.667969 210.996094 L 221.988281 211.210938 C 222.339844 211.464844 222.445312 212 222.234375 212.394531 C 222.128906 212.574219 221.953125 212.679688 221.773438 212.753906 C 221.632812 212.789062 221.527344 212.753906 221.386719 212.71875 L 214.464844 207.84375 C 214.429688 207.84375 214.429688 207.808594 214.394531 207.808594 C 214.359375 207.808594 214.359375 207.773438 214.324219 207.773438 C 214.285156 207.773438 214.25 207.738281 214.214844 207.738281 C 214.144531 207.703125 214.039062 207.703125 213.96875 207.738281 C 213.933594 207.738281 213.898438 207.738281 213.863281 207.773438 C 213.863281 207.773438 213.828125 207.773438 213.828125 207.773438 C 213.792969 207.773438 213.792969 207.808594 213.757812 207.808594 C 213.757812 207.808594 213.722656 207.808594 213.722656 207.84375 C 213.6875 207.84375 213.6875 207.882812 213.6875 207.882812 C 213.652344 207.882812 213.652344 207.917969 213.617188 207.917969 C 213.617188 207.917969 213.582031 207.953125 213.582031 207.953125 C 213.546875 207.988281 213.546875 207.988281 213.511719 208.023438 C 213.511719 208.023438 213.476562 208.058594 213.476562 208.058594 C 213.476562 208.097656 213.4375 208.097656 213.4375 208.132812 C 213.4375 208.167969 213.4375 208.167969 213.402344 208.203125 C 213.402344 208.238281 213.367188 208.238281 213.367188 208.273438 C 213.367188 208.3125 213.367188 208.3125 213.367188 208.347656 C 213.367188 208.382812 213.367188 208.382812 213.367188 208.417969 C 213.367188 208.453125 213.367188 208.453125 213.367188 208.488281 C 213.367188 208.527344 213.367188 208.527344 213.367188 208.5625 C 213.367188 208.597656 213.367188 208.597656 213.367188 208.632812 C 213.367188 208.667969 213.367188 208.667969 213.402344 208.703125 C 213.402344 208.742188 213.4375 208.742188 213.4375 208.742188 C 213.4375 208.777344 213.476562 208.777344 213.476562 208.8125 C 213.476562 208.8125 213.511719 208.847656 213.511719 208.847656 C 213.511719 208.882812 213.546875 208.882812 213.546875 208.917969 C 213.546875 208.917969 213.582031 208.957031 213.582031 208.957031 C 213.617188 208.992188 213.617188 208.992188 213.652344 209.027344 L 220.398438 213.792969 C 220.503906 213.863281 220.609375 213.933594 220.714844 213.972656 L 222.023438 214.867188 C 222.410156 215.117188 222.480469 215.65625 222.269531 216.050781 C 222.164062 216.226562 221.988281 216.335938 221.808594 216.40625 C 221.632812 216.441406 221.421875 216.40625 221.246094 216.300781 L 219.726562 215.226562 C 219.65625 215.1875 219.621094 215.117188 219.550781 215.082031 C 219.515625 215.046875 219.480469 215.046875 219.410156 215.011719 L 212.378906 210.101562 C 212.0625 209.886719 211.601562 209.957031 211.390625 210.28125 C 211.179688 210.605469 211.25 211.070312 211.566406 211.285156 L 218.738281 216.300781 C 219.019531 216.585938 219.054688 217.160156 218.808594 217.554688 C 218.703125 217.734375 218.523438 217.839844 218.347656 217.910156 C 218.171875 217.949219 217.960938 217.910156 217.785156 217.769531 L 213.792969 215.046875 C 213.652344 214.867188 213.511719 214.6875 213.296875 214.542969 L 212.945312 214.257812 C 212.449219 213.863281 211.851562 213.683594 211.214844 213.792969 C 211.144531 213.792969 211.074219 213.828125 211.003906 213.828125 C 210.859375 213.289062 210.578125 212.824219 210.15625 212.464844 C 209.660156 212.074219 209.058594 211.929688 208.425781 212 C 208.351562 211.390625 208.035156 210.820312 207.542969 210.390625 L 207.117188 210.03125 C 206.621094 209.636719 205.988281 209.457031 205.386719 209.566406 C 205.351562 209.566406 205.316406 209.566406 205.28125 209.601562 C 205.175781 209.027344 204.890625 208.488281 204.398438 208.132812 L 204.078125 207.882812 C 203.585938 207.488281 202.949219 207.308594 202.347656 207.414062 C 201.714844 207.523438 201.183594 207.84375 200.796875 208.382812 L 200.089844 209.386719 L 197.015625 207.234375 C 197.015625 207.199219 196.980469 207.164062 196.945312 207.128906 Z M 194.933594 203.832031 C 195.320312 203.832031 195.640625 204.15625 195.640625 204.550781 C 195.640625 204.941406 195.320312 205.265625 194.933594 205.265625 C 194.542969 205.265625 194.226562 204.941406 194.226562 204.550781 C 194.226562 204.15625 194.542969 203.832031 194.933594 203.832031 Z M 194.933594 203.832031 " fill-opacity="1" fill-rule="nonzero"/></g></svg>