<?xml version="1.0" encoding="UTF-8"?><svg xmlns="http://www.w3.org/2000/svg" xmlns:xlink="http://www.w3.org/1999/xlink" contentScriptType="text/ecmascript" width="375" zoomAndPan="magnify" contentStyleType="text/css" viewBox="0 0 375 374.999991" height="374.999991" preserveAspectRatio="xMidYMid meet" version="1.0"><defs><clipPath id="clip-0"><path d="M 167 158 L 211 158 L 211 221.066406 L 167 221.066406 Z M 167 158 " clip-rule="nonzero"/></clipPath><clipPath id="clip-1"><path d="M 142.300781 156 L 161 156 L 161 169 L 142.300781 169 Z M 142.300781 156 " clip-rule="nonzero"/></clipPath><clipPath id="clip-2"><path d="M 218 163 L 233.050781 163 L 233.050781 173 L 218 173 Z M 218 163 " clip-rule="nonzero"/></clipPath><clipPath id="clip-3"><path d="M 183 110.816406 L 191 110.816406 L 191 122 L 183 122 Z M 183 110.816406 " clip-rule="nonzero"/></clipPath><clipPath id="clip-4"><path d="M 203.566406 193.882812 L 244.492188 193.882812 L 244.492188 221.339844 L 203.566406 221.339844 Z M 203.566406 193.882812 " clip-rule="nonzero"/></clipPath><clipPath id="clip-5"><path d="M 194.523438 183.109375 L 222 183.109375 L 222 212 L 194.523438 212 Z M 194.523438 183.109375 " clip-rule="nonzero"/></clipPath></defs><rect x="-37.5" width="450" fill="rgb(100%, 100%, 100%)" y="-37.499999" height="449.999989" fill-opacity="1"/><rect x="-37.5" width="450" fill="rgb(100%, 100%, 100%)" y="-37.499999" height="449.999989" fill-opacity="1"/><path fill="rgb(83.529663%, 83.529663%, 83.529663%)" d="M 220.691406 140.496094 C 220.148438 143.949219 223.15625 146.5625 223.15625 146.5625 C 223.15625 146.5625 226.8125 145.035156 227.363281 141.535156 C 227.914062 138.039062 224.871094 135.640625 224.871094 135.640625 C 224.871094 135.640625 221.230469 137.039062 220.691406 140.496094 " fill-opacity="1" fill-rule="nonzero"/><path fill="rgb(83.529663%, 83.529663%, 83.529663%)" d="M 218.636719 129.222656 C 218.09375 132.679688 221.101562 135.289062 221.101562 135.289062 C 221.101562 135.289062 224.761719 133.761719 225.3125 130.265625 C 225.859375 126.765625 222.820312 124.371094 222.820312 124.371094 C 222.820312 124.371094 219.179688 125.765625 218.636719 129.222656 " fill-opacity="1" fill-rule="nonzero"/><g clip-path="url(#clip-0)"><path fill="rgb(83.529663%, 83.529663%, 83.529663%)" d="M 167.421875 172.972656 C 167.421875 172.972656 179.785156 183.199219 180.363281 197.394531 C 180.9375 211.589844 178.246094 221.085938 178.246094 221.085938 L 196.054688 221.085938 C 196.054688 221.085938 189.125 209.191406 193.453125 193.652344 C 197.789062 178.117188 205.972656 171.015625 210.210938 169.003906 L 208.378906 167.949219 C 208.378906 167.949219 201.542969 171.6875 197.304688 176.484375 C 193.070312 181.28125 190.871094 181.863281 190.234375 172.746094 C 189.578125 163.34375 189.578125 158.835938 189.578125 158.835938 L 186.878906 158.835938 C 186.878906 158.835938 186.609375 173.988281 182.46875 178.019531 C 178.324219 182.046875 175.042969 175.675781 168.5625 171.113281 L 167.421875 172.972656 " fill-opacity="1" fill-rule="nonzero"/></g><path fill="rgb(83.529663%, 83.529663%, 83.529663%)" d="M 181.125 159.324219 C 181.125 166.90625 173.800781 171.496094 173.800781 171.496094 C 173.800781 171.496094 166.476562 167.003906 166.476562 159.324219 C 166.476562 151.644531 173.800781 147.523438 173.800781 147.523438 C 173.800781 147.523438 181.125 151.738281 181.125 159.324219 " fill-opacity="1" fill-rule="nonzero"/><path fill="rgb(83.529663%, 83.529663%, 83.529663%)" d="M 185.28125 141.316406 C 184.324219 146.34375 178.890625 148.464844 178.890625 148.464844 C 178.890625 148.464844 174.601562 144.566406 175.574219 139.480469 C 176.546875 134.390625 181.917969 132.578125 181.917969 132.578125 C 181.917969 132.578125 186.242188 136.289062 185.28125 141.316406 " fill-opacity="1" fill-rule="nonzero"/><path fill="rgb(83.529663%, 83.529663%, 83.529663%)" d="M 191.246094 152.378906 C 189.074219 157.019531 183.285156 157.742188 183.285156 157.742188 C 183.285156 157.742188 180.09375 152.914062 182.289062 148.21875 C 184.488281 143.523438 190.144531 143.085938 190.144531 143.085938 C 190.144531 143.085938 193.414062 147.742188 191.246094 152.378906 " fill-opacity="1" fill-rule="nonzero"/><path fill="rgb(83.529663%, 83.529663%, 83.529663%)" d="M 164.234375 138.054688 C 165.828125 141.171875 163.789062 144.585938 163.789062 144.585938 C 163.789062 144.585938 159.832031 144.265625 158.21875 141.113281 C 156.605469 137.957031 158.746094 134.738281 158.746094 134.738281 C 158.746094 134.738281 162.640625 134.941406 164.234375 138.054688 " fill-opacity="1" fill-rule="nonzero"/><g clip-path="url(#clip-1)"><path fill="rgb(83.529663%, 83.529663%, 83.529663%)" d="M 152.484375 157.125 C 158.078125 158.628906 160.007812 164.898438 160.007812 164.898438 C 160.007812 164.898438 155.242188 169.367188 149.582031 167.84375 C 143.921875 166.324219 142.332031 160.148438 142.332031 160.148438 C 142.332031 160.148438 146.890625 155.621094 152.484375 157.125 " fill-opacity="1" fill-rule="nonzero"/></g><path fill="rgb(83.529663%, 83.529663%, 83.529663%)" d="M 163.648438 165.6875 C 167.054688 166.519531 168.316406 170.292969 168.316406 170.292969 C 168.316406 170.292969 165.492188 173.066406 162.039062 172.222656 C 158.585938 171.382812 157.535156 167.660156 157.535156 167.660156 C 157.535156 167.660156 160.234375 164.855469 163.648438 165.6875 " fill-opacity="1" fill-rule="nonzero"/><path fill="rgb(83.529663%, 83.529663%, 83.529663%)" d="M 151.796875 147.253906 C 155.445312 150.121094 154.882812 155.351562 154.882812 155.351562 C 154.882812 155.351562 149.953125 157.148438 146.261719 154.246094 C 142.566406 151.34375 143.355469 146.289062 143.355469 146.289062 C 143.355469 146.289062 148.152344 144.386719 151.796875 147.253906 " fill-opacity="1" fill-rule="nonzero"/><path fill="rgb(83.529663%, 83.529663%, 83.529663%)" d="M 173.800781 146.050781 C 173.800781 146.050781 174.234375 146.296875 174.898438 146.78125 C 174.917969 146.695312 174.941406 146.605469 174.957031 146.515625 C 175.914062 141.488281 171.59375 137.777344 171.59375 137.777344 C 171.59375 137.777344 166.21875 139.589844 165.25 144.679688 C 164.605469 148.050781 166.273438 150.898438 167.46875 152.4375 C 169.898438 148.25 173.800781 146.050781 173.800781 146.050781 " fill-opacity="1" fill-rule="nonzero"/><path fill="rgb(83.529663%, 83.529663%, 83.529663%)" d="M 165.578125 159.300781 C 165.578125 157.078125 166.125 155.121094 166.9375 153.441406 C 165.757812 151.894531 164.257812 149.316406 164.273438 146.21875 C 161.3125 144.785156 158.582031 144.585938 158.582031 144.585938 C 158.582031 144.585938 153.785156 151.46875 157.140625 158.382812 C 159.523438 163.300781 164.535156 165.164062 167.234375 165.828125 C 166.261719 163.972656 165.578125 161.785156 165.578125 159.300781 " fill-opacity="1" fill-rule="nonzero"/><path fill="rgb(83.529663%, 83.529663%, 83.529663%)" d="M 197.386719 149.824219 C 191.707031 154.878906 193.148438 163.375 193.148438 163.375 C 193.148438 163.375 201.394531 165.824219 207.144531 160.707031 C 212.890625 155.59375 211.101562 147.410156 211.101562 147.410156 C 211.101562 147.410156 203.066406 144.773438 197.386719 149.824219 " fill-opacity="1" fill-rule="nonzero"/><path fill="rgb(83.529663%, 83.529663%, 83.529663%)" d="M 208.097656 134.746094 C 204.972656 138.804688 207.003906 144.253906 207.003906 144.253906 C 207.003906 144.253906 212.777344 144.847656 215.941406 140.734375 C 219.105469 136.621094 216.882812 131.421875 216.882812 131.421875 C 216.882812 131.421875 211.222656 130.683594 208.097656 134.746094 " fill-opacity="1" fill-rule="nonzero"/><path fill="rgb(83.529663%, 83.529663%, 83.529663%)" d="M 195.84375 137.683594 C 193.816406 142.386719 197.132812 147.171875 197.132812 147.171875 C 197.132812 147.171875 202.875 146.324219 204.925781 141.566406 C 206.976562 136.804688 203.535156 132.308594 203.535156 132.308594 C 203.535156 132.308594 197.867188 132.980469 195.84375 137.683594 " fill-opacity="1" fill-rule="nonzero"/><path fill="rgb(83.529663%, 83.529663%, 83.529663%)" d="M 224.558594 148.210938 C 221.164062 149.101562 219.96875 152.894531 219.96875 152.894531 C 219.96875 152.894531 222.84375 155.617188 226.277344 154.71875 C 229.714844 153.820312 230.699219 150.082031 230.699219 150.082031 C 230.699219 150.082031 227.953125 147.320312 224.558594 148.210938 " fill-opacity="1" fill-rule="nonzero"/><path fill="rgb(83.529663%, 83.529663%, 83.529663%)" d="M 220.308594 170.859375 C 215.457031 167.707031 209.476562 170.445312 209.476562 170.445312 C 209.476562 170.445312 209.304688 176.964844 214.21875 180.15625 C 219.128906 183.351562 224.808594 180.417969 224.808594 180.417969 C 224.808594 180.417969 225.15625 174.015625 220.308594 170.859375 " fill-opacity="1" fill-rule="nonzero"/><g clip-path="url(#clip-2)"><path fill="rgb(83.529663%, 83.529663%, 83.529663%)" d="M 226.6875 163.445312 C 222.113281 162.644531 218.570312 166.542969 218.570312 166.542969 C 218.570312 166.542969 220.511719 171.40625 225.144531 172.214844 C 229.777344 173.027344 233.035156 169.074219 233.035156 169.074219 C 233.035156 169.074219 231.269531 164.246094 226.6875 163.445312 " fill-opacity="1" fill-rule="nonzero"/></g><path fill="rgb(83.529663%, 83.529663%, 83.529663%)" d="M 212.199219 146.429688 C 212.199219 146.429688 211.730469 146.273438 210.921875 146.101562 C 210.976562 146.027344 211.027344 145.953125 211.082031 145.878906 C 214.210938 141.820312 219.863281 142.558594 219.863281 142.558594 C 219.863281 142.558594 222.085938 147.761719 218.921875 151.867188 C 216.828125 154.59375 213.585938 155.253906 211.636719 155.386719 C 213.15625 150.796875 212.199219 146.429688 212.199219 146.429688 " fill-opacity="1" fill-rule="nonzero"/><path fill="rgb(83.529663%, 83.529663%, 83.529663%)" d="M 207.757812 161.363281 C 209.421875 159.882812 210.523438 158.175781 211.242188 156.453125 C 213.179688 156.296875 216.113281 155.695312 218.421875 153.617188 C 221.46875 154.867188 223.4375 156.761719 223.4375 156.761719 C 223.4375 156.761719 221.476562 164.910156 214.066406 167.023438 C 208.796875 168.527344 204.0625 166.042969 201.769531 164.480469 C 203.804688 163.96875 205.898438 163.019531 207.757812 161.363281 " fill-opacity="1" fill-rule="nonzero"/><path fill="rgb(83.529663%, 83.529663%, 83.529663%)" d="M 175.914062 125.484375 C 177.179688 129.332031 181.660156 130.449219 181.660156 130.449219 C 181.660156 130.449219 184.625 126.960938 183.347656 123.0625 C 182.066406 119.167969 177.664062 118.289062 177.664062 118.289062 C 177.664062 118.289062 174.652344 121.636719 175.914062 125.484375 " fill-opacity="1" fill-rule="nonzero"/><path fill="rgb(83.529663%, 83.529663%, 83.529663%)" d="M 193.976562 125.632812 C 196.457031 130.113281 202.28125 130.449219 202.28125 130.449219 C 202.28125 130.449219 205.144531 125.417969 202.628906 120.882812 C 200.121094 116.34375 194.445312 116.285156 194.445312 116.285156 C 194.445312 116.285156 191.5 121.152344 193.976562 125.632812 " fill-opacity="1" fill-rule="nonzero"/><path fill="rgb(83.529663%, 83.529663%, 83.529663%)" d="M 164.945312 183.648438 C 168.292969 179.761719 166.570312 174.207031 166.570312 174.207031 C 166.570312 174.207031 160.839844 173.300781 157.453125 177.230469 C 154.0625 181.160156 155.992188 186.476562 155.992188 186.476562 C 155.992188 186.476562 161.601562 187.527344 164.945312 183.648438 " fill-opacity="1" fill-rule="nonzero"/><path fill="rgb(83.529663%, 83.529663%, 83.529663%)" d="M 204.625 125.304688 C 204.078125 128.757812 207.085938 131.367188 207.085938 131.367188 C 207.085938 131.367188 210.746094 129.84375 211.296875 126.347656 C 211.847656 122.847656 208.804688 120.445312 208.804688 120.445312 C 208.804688 120.445312 205.167969 121.847656 204.625 125.304688 " fill-opacity="1" fill-rule="nonzero"/><path fill="rgb(83.529663%, 83.529663%, 83.529663%)" d="M 157.894531 127.320312 C 157.351562 130.777344 160.355469 133.386719 160.355469 133.386719 C 160.355469 133.386719 164.015625 131.859375 164.566406 128.363281 C 165.117188 124.863281 162.074219 122.464844 162.074219 122.464844 C 162.074219 122.464844 158.4375 123.863281 157.894531 127.320312 " fill-opacity="1" fill-rule="nonzero"/><path fill="rgb(83.529663%, 83.529663%, 83.529663%)" d="M 148.753906 129.222656 C 148.210938 132.679688 151.21875 135.289062 151.21875 135.289062 C 151.21875 135.289062 154.878906 133.761719 155.429688 130.265625 C 155.976562 126.765625 152.9375 124.371094 152.9375 124.371094 C 152.9375 124.371094 149.296875 125.765625 148.753906 129.222656 " fill-opacity="1" fill-rule="nonzero"/><g clip-path="url(#clip-3)"><path fill="rgb(83.529663%, 83.529663%, 83.529663%)" d="M 183.417969 115.679688 C 182.875 119.136719 185.878906 121.75 185.878906 121.75 C 185.878906 121.75 189.539062 120.21875 190.089844 116.722656 C 190.640625 113.226562 187.597656 110.824219 187.597656 110.824219 C 187.597656 110.824219 183.960938 112.222656 183.417969 115.679688 " fill-opacity="1" fill-rule="nonzero"/></g><path fill="rgb(83.529663%, 83.529663%, 83.529663%)" d="M 149.285156 142.9375 C 151.265625 145.824219 155.25 145.667969 155.25 145.667969 C 155.25 145.667969 156.863281 142.058594 154.859375 139.132812 C 152.847656 136.210938 148.988281 136.542969 148.988281 136.542969 C 148.988281 136.542969 147.300781 140.046875 149.285156 142.9375 " fill-opacity="1" fill-rule="nonzero"/><path fill="rgb(83.529663%, 83.529663%, 83.529663%)" d="M 184.765625 132.429688 C 186.015625 138.066406 192.214844 140.277344 192.214844 140.277344 C 192.214844 140.277344 196.910156 135.738281 195.644531 130.03125 C 194.378906 124.328125 188.257812 122.464844 188.257812 122.464844 C 188.257812 122.464844 183.511719 126.796875 184.765625 132.429688 " fill-opacity="1" fill-rule="nonzero"/><path fill="rgb(83.529663%, 83.529663%, 83.529663%)" d="M 166.390625 128.8125 C 163.820312 132.667969 165.984375 137.464844 165.984375 137.464844 C 165.984375 137.464844 171.234375 137.644531 173.835938 133.742188 C 176.4375 129.839844 174.113281 125.28125 174.113281 125.28125 C 174.113281 125.28125 168.964844 124.957031 166.390625 128.8125 " fill-opacity="1" fill-rule="nonzero"/><g clip-path="url(#clip-4)"><path fill="rgb(18.03894%, 71.369934%, 68.238831%)" d="M 211.285156 219.914062 C 213.417969 219.78125 215.535156 219.648438 218.636719 219.453125 C 228.621094 218.8125 231.511719 214.265625 233.835938 210.613281 C 234.84375 209.023438 235.726562 207.636719 237.039062 206.917969 L 237.039062 196.148438 C 236.214844 196.023438 235.453125 195.890625 234.738281 195.761719 C 230.273438 194.976562 227.8125 194.542969 223.394531 198.339844 C 221.804688 199.71875 220.035156 201.292969 218.257812 202.875 C 216.445312 204.492188 214.574219 206.15625 212.894531 207.613281 C 215.515625 210 218.109375 208.8125 225.183594 205.570312 C 225.371094 205.484375 225.589844 205.527344 225.730469 205.675781 C 225.871094 205.828125 225.902344 206.050781 225.808594 206.234375 C 225.125 207.585938 224.578125 208.722656 224.027344 209.859375 C 223.472656 211 222.921875 212.144531 222.234375 213.5 C 222.164062 213.636719 222.03125 213.734375 221.878906 213.757812 L 219.460938 214.132812 C 209.59375 215.648438 204.878906 216.371094 204.605469 220.335938 C 207.355469 220.160156 209.324219 220.039062 211.285156 219.914062 Z M 219.320312 213.167969 L 221.492188 212.832031 C 222.125 211.578125 222.644531 210.503906 223.164062 209.429688 C 223.539062 208.648438 223.917969 207.871094 224.335938 207.027344 C 217.789062 210.011719 214.878906 211.085938 211.835938 207.929688 C 211.746094 207.835938 211.695312 207.703125 211.699219 207.566406 C 211.707031 207.433594 211.769531 207.308594 211.867188 207.21875 C 213.644531 205.691406 215.667969 203.886719 217.625 202.144531 C 219.40625 200.558594 221.175781 198.980469 222.769531 197.597656 C 227.535156 193.503906 230.308594 193.996094 234.902344 194.804688 C 235.566406 194.921875 236.285156 195.042969 237.039062 195.160156 L 237.039062 194.464844 C 237.039062 194.195312 237.253906 193.976562 237.519531 193.976562 L 244.292969 193.976562 C 244.558594 193.976562 244.773438 194.195312 244.773438 194.464844 C 244.773438 194.734375 244.558594 194.949219 244.292969 194.949219 L 238 194.949219 L 238 208.292969 L 244.292969 208.292969 C 244.558594 208.292969 244.773438 208.507812 244.773438 208.777344 C 244.773438 209.046875 244.558594 209.265625 244.292969 209.265625 L 237.519531 209.265625 C 237.253906 209.265625 237.039062 209.046875 237.039062 208.777344 L 237.039062 208.082031 C 236.171875 208.746094 235.476562 209.828125 234.644531 211.140625 C 232.332031 214.773438 229.164062 219.753906 218.699219 220.425781 C 215.597656 220.621094 213.476562 220.753906 211.34375 220.886719 C 209.261719 221.015625 207.167969 221.148438 204.144531 221.339844 C 204.132812 221.339844 204.125 221.339844 204.113281 221.339844 C 203.996094 221.339844 203.878906 221.296875 203.789062 221.210938 C 203.695312 221.121094 203.636719 220.996094 203.632812 220.863281 C 203.519531 215.59375 208.800781 214.785156 219.320312 213.167969 " fill-opacity="1" fill-rule="nonzero"/></g><g clip-path="url(#clip-5)"><path fill="rgb(18.03894%, 71.369934%, 68.238831%)" d="M 208.261719 183.128906 C 215.828125 183.128906 221.980469 189.4375 221.980469 197.191406 C 221.980469 197.460938 221.765625 197.675781 221.503906 197.675781 C 221.238281 197.675781 221.019531 197.460938 221.019531 197.191406 C 221.019531 189.972656 215.296875 184.101562 208.261719 184.101562 C 201.214844 184.101562 195.484375 189.972656 195.484375 197.191406 C 195.484375 204.394531 201.214844 210.257812 208.261719 210.257812 C 209.679688 210.257812 211.074219 210.023438 212.40625 209.5625 C 212.65625 209.476562 212.929688 209.613281 213.015625 209.867188 C 213.101562 210.121094 212.96875 210.398438 212.714844 210.484375 C 211.285156 210.980469 209.785156 211.234375 208.261719 211.234375 C 200.6875 211.234375 194.523438 204.933594 194.523438 197.191406 C 194.523438 189.4375 200.6875 183.128906 208.261719 183.128906 " fill-opacity="1" fill-rule="nonzero"/></g><path fill="rgb(18.03894%, 71.369934%, 68.238831%)" d="M 210.566406 208.222656 C 209.816406 208.382812 209.039062 208.46875 208.261719 208.46875 C 202.1875 208.46875 197.242188 203.40625 197.242188 197.191406 C 197.242188 190.972656 202.1875 185.914062 208.261719 185.914062 C 214.335938 185.914062 219.28125 190.972656 219.28125 197.191406 C 219.28125 198.105469 219.183594 198.972656 218.984375 199.832031 C 218.921875 200.09375 218.664062 200.257812 218.40625 200.195312 C 218.148438 200.132812 217.988281 199.871094 218.046875 199.609375 C 218.230469 198.820312 218.320312 198.03125 218.320312 197.191406 C 218.320312 191.507812 213.808594 186.886719 208.261719 186.886719 C 202.714844 186.886719 198.203125 191.507812 198.203125 197.191406 C 198.203125 202.871094 202.714844 207.492188 208.261719 207.492188 C 208.972656 207.492188 209.679688 207.417969 210.367188 207.269531 C 210.628906 207.214844 210.882812 207.382812 210.9375 207.644531 C 210.992188 207.90625 210.828125 208.167969 210.566406 208.222656 " fill-opacity="1" fill-rule="nonzero"/><path fill="rgb(18.03894%, 71.369934%, 68.238831%)" d="M 214.242188 195.261719 L 210.265625 194.832031 C 210.09375 194.8125 209.945312 194.703125 209.875 194.542969 L 208.261719 190.800781 L 206.628906 194.542969 C 206.558594 194.703125 206.410156 194.8125 206.238281 194.832031 L 202.265625 195.261719 L 205.253906 197.996094 C 205.382812 198.113281 205.4375 198.289062 205.402344 198.460938 L 204.5625 202.464844 L 208.019531 200.410156 C 208.167969 200.324219 208.355469 200.324219 208.503906 200.410156 L 211.960938 202.464844 L 211.121094 198.460938 C 211.085938 198.289062 211.140625 198.113281 211.269531 198 Z M 212.9375 203.835938 C 212.855469 203.898438 212.753906 203.929688 212.65625 203.929688 C 212.574219 203.929688 212.488281 203.90625 212.414062 203.863281 L 208.261719 201.398438 L 204.109375 203.863281 C 203.945312 203.960938 203.742188 203.949219 203.585938 203.835938 C 203.433594 203.722656 203.359375 203.53125 203.398438 203.339844 L 204.40625 198.53125 L 200.824219 195.253906 C 200.683594 195.125 200.632812 194.925781 200.691406 194.742188 C 200.75 194.558594 200.90625 194.429688 201.097656 194.40625 L 205.863281 193.890625 L 207.824219 189.398438 C 207.898438 189.222656 208.070312 189.105469 208.261719 189.105469 C 208.453125 189.105469 208.625 189.222656 208.703125 189.398438 L 210.644531 193.890625 L 215.410156 194.40625 C 215.597656 194.429688 215.753906 194.558594 215.816406 194.742188 C 215.871094 194.921875 215.820312 195.125 215.679688 195.253906 L 212.117188 198.53125 L 213.125 203.339844 C 213.164062 203.53125 213.089844 203.722656 212.9375 203.835938 " fill-opacity="1" fill-rule="nonzero"/></svg>