<?xml version="1.0" encoding="UTF-8"?><svg xmlns="http://www.w3.org/2000/svg" xmlns:xlink="http://www.w3.org/1999/xlink" contentScriptType="text/ecmascript" width="375" zoomAndPan="magnify" contentStyleType="text/css" viewBox="0 0 375 374.999991" height="374.999991" preserveAspectRatio="xMidYMid meet" version="1.0"><defs><clipPath id="clip-0"><path d="M 167 158 L 211 158 L 211 221.066406 L 167 221.066406 Z M 167 158 " clip-rule="nonzero"/></clipPath><clipPath id="clip-1"><path d="M 142.300781 156 L 161 156 L 161 169 L 142.300781 169 Z M 142.300781 156 " clip-rule="nonzero"/></clipPath><clipPath id="clip-2"><path d="M 218 163 L 233.050781 163 L 233.050781 173 L 218 173 Z M 218 163 " clip-rule="nonzero"/></clipPath><clipPath id="clip-3"><path d="M 183 110.816406 L 191 110.816406 L 191 122 L 183 122 Z M 183 110.816406 " clip-rule="nonzero"/></clipPath><clipPath id="clip-4"><path d="M 197.625 179.625 L 238.875 179.625 L 238.875 220.875 L 197.625 220.875 Z M 197.625 179.625 " clip-rule="nonzero"/></clipPath></defs><rect x="-37.5" width="450" fill="rgb(100%, 100%, 100%)" y="-37.499999" height="449.999989" fill-opacity="1"/><rect x="-37.5" width="450" fill="rgb(100%, 100%, 100%)" y="-37.499999" height="449.999989" fill-opacity="1"/><path fill="rgb(83.529663%, 83.529663%, 83.529663%)" d="M 220.691406 140.496094 C 220.148438 143.949219 223.15625 146.5625 223.15625 146.5625 C 223.15625 146.5625 226.8125 145.035156 227.363281 141.535156 C 227.914062 138.039062 224.871094 135.640625 224.871094 135.640625 C 224.871094 135.640625 221.230469 137.039062 220.691406 140.496094 " fill-opacity="1" fill-rule="nonzero"/><path fill="rgb(83.529663%, 83.529663%, 83.529663%)" d="M 218.636719 129.222656 C 218.09375 132.679688 221.101562 135.289062 221.101562 135.289062 C 221.101562 135.289062 224.761719 133.761719 225.3125 130.265625 C 225.859375 126.765625 222.820312 124.367188 222.820312 124.367188 C 222.820312 124.367188 219.179688 125.765625 218.636719 129.222656 " fill-opacity="1" fill-rule="nonzero"/><g clip-path="url(#clip-0)"><path fill="rgb(83.529663%, 83.529663%, 83.529663%)" d="M 167.421875 172.972656 C 167.421875 172.972656 179.785156 183.199219 180.363281 197.394531 C 180.9375 211.589844 178.246094 221.085938 178.246094 221.085938 L 196.054688 221.085938 C 196.054688 221.085938 189.125 209.191406 193.453125 193.652344 C 197.789062 178.117188 205.972656 171.015625 210.210938 169.003906 L 208.378906 167.949219 C 208.378906 167.949219 201.542969 171.6875 197.304688 176.484375 C 193.070312 181.28125 190.871094 181.863281 190.234375 172.746094 C 189.578125 163.34375 189.578125 158.835938 189.578125 158.835938 L 186.878906 158.835938 C 186.878906 158.835938 186.609375 173.988281 182.46875 178.019531 C 178.324219 182.046875 175.042969 175.675781 168.5625 171.113281 L 167.421875 172.972656 " fill-opacity="1" fill-rule="nonzero"/></g><path fill="rgb(83.529663%, 83.529663%, 83.529663%)" d="M 181.125 159.324219 C 181.125 166.90625 173.800781 171.496094 173.800781 171.496094 C 173.800781 171.496094 166.476562 167.003906 166.476562 159.324219 C 166.476562 151.644531 173.800781 147.523438 173.800781 147.523438 C 173.800781 147.523438 181.125 151.738281 181.125 159.324219 " fill-opacity="1" fill-rule="nonzero"/><path fill="rgb(83.529663%, 83.529663%, 83.529663%)" d="M 185.28125 141.316406 C 184.324219 146.34375 178.890625 148.464844 178.890625 148.464844 C 178.890625 148.464844 174.601562 144.566406 175.574219 139.480469 C 176.546875 134.390625 181.917969 132.578125 181.917969 132.578125 C 181.917969 132.578125 186.242188 136.289062 185.28125 141.316406 " fill-opacity="1" fill-rule="nonzero"/><path fill="rgb(83.529663%, 83.529663%, 83.529663%)" d="M 191.246094 152.378906 C 189.074219 157.019531 183.285156 157.742188 183.285156 157.742188 C 183.285156 157.742188 180.09375 152.914062 182.289062 148.21875 C 184.488281 143.523438 190.144531 143.085938 190.144531 143.085938 C 190.144531 143.085938 193.414062 147.742188 191.246094 152.378906 " fill-opacity="1" fill-rule="nonzero"/><path fill="rgb(83.529663%, 83.529663%, 83.529663%)" d="M 164.234375 138.054688 C 165.828125 141.171875 163.789062 144.585938 163.789062 144.585938 C 163.789062 144.585938 159.832031 144.265625 158.21875 141.113281 C 156.605469 137.957031 158.746094 134.738281 158.746094 134.738281 C 158.746094 134.738281 162.640625 134.941406 164.234375 138.054688 " fill-opacity="1" fill-rule="nonzero"/><g clip-path="url(#clip-1)"><path fill="rgb(83.529663%, 83.529663%, 83.529663%)" d="M 152.484375 157.125 C 158.078125 158.628906 160.007812 164.898438 160.007812 164.898438 C 160.007812 164.898438 155.242188 169.367188 149.582031 167.84375 C 143.921875 166.324219 142.332031 160.148438 142.332031 160.148438 C 142.332031 160.148438 146.890625 155.621094 152.484375 157.125 " fill-opacity="1" fill-rule="nonzero"/></g><path fill="rgb(83.529663%, 83.529663%, 83.529663%)" d="M 163.648438 165.6875 C 167.054688 166.519531 168.316406 170.289062 168.316406 170.289062 C 168.316406 170.289062 165.492188 173.066406 162.039062 172.222656 C 158.585938 171.382812 157.535156 167.660156 157.535156 167.660156 C 157.535156 167.660156 160.234375 164.855469 163.648438 165.6875 " fill-opacity="1" fill-rule="nonzero"/><path fill="rgb(83.529663%, 83.529663%, 83.529663%)" d="M 151.796875 147.253906 C 155.445312 150.121094 154.882812 155.351562 154.882812 155.351562 C 154.882812 155.351562 149.953125 157.148438 146.261719 154.246094 C 142.566406 151.34375 143.355469 146.289062 143.355469 146.289062 C 143.355469 146.289062 148.152344 144.386719 151.796875 147.253906 " fill-opacity="1" fill-rule="nonzero"/><path fill="rgb(83.529663%, 83.529663%, 83.529663%)" d="M 173.800781 146.050781 C 173.800781 146.050781 174.234375 146.296875 174.898438 146.78125 C 174.917969 146.695312 174.941406 146.605469 174.957031 146.515625 C 175.914062 141.488281 171.59375 137.777344 171.59375 137.777344 C 171.59375 137.777344 166.21875 139.589844 165.25 144.679688 C 164.605469 148.050781 166.273438 150.898438 167.46875 152.4375 C 169.898438 148.25 173.800781 146.050781 173.800781 146.050781 " fill-opacity="1" fill-rule="nonzero"/><path fill="rgb(83.529663%, 83.529663%, 83.529663%)" d="M 165.578125 159.300781 C 165.578125 157.078125 166.125 155.121094 166.9375 153.441406 C 165.757812 151.894531 164.257812 149.316406 164.273438 146.21875 C 161.3125 144.785156 158.582031 144.585938 158.582031 144.585938 C 158.582031 144.585938 153.785156 151.46875 157.140625 158.382812 C 159.523438 163.296875 164.535156 165.164062 167.234375 165.828125 C 166.261719 163.972656 165.578125 161.785156 165.578125 159.300781 " fill-opacity="1" fill-rule="nonzero"/><path fill="rgb(83.529663%, 83.529663%, 83.529663%)" d="M 197.386719 149.824219 C 191.707031 154.878906 193.148438 163.375 193.148438 163.375 C 193.148438 163.375 201.394531 165.824219 207.144531 160.707031 C 212.890625 155.59375 211.101562 147.410156 211.101562 147.410156 C 211.101562 147.410156 203.066406 144.773438 197.386719 149.824219 " fill-opacity="1" fill-rule="nonzero"/><path fill="rgb(83.529663%, 83.529663%, 83.529663%)" d="M 208.097656 134.746094 C 204.972656 138.804688 207.003906 144.253906 207.003906 144.253906 C 207.003906 144.253906 212.777344 144.84375 215.941406 140.734375 C 219.105469 136.621094 216.882812 131.421875 216.882812 131.421875 C 216.882812 131.421875 211.222656 130.683594 208.097656 134.746094 " fill-opacity="1" fill-rule="nonzero"/><path fill="rgb(83.529663%, 83.529663%, 83.529663%)" d="M 195.84375 137.683594 C 193.816406 142.386719 197.132812 147.171875 197.132812 147.171875 C 197.132812 147.171875 202.875 146.324219 204.925781 141.566406 C 206.976562 136.804688 203.535156 132.308594 203.535156 132.308594 C 203.535156 132.308594 197.867188 132.980469 195.84375 137.683594 " fill-opacity="1" fill-rule="nonzero"/><path fill="rgb(83.529663%, 83.529663%, 83.529663%)" d="M 224.558594 148.210938 C 221.164062 149.101562 219.96875 152.894531 219.96875 152.894531 C 219.96875 152.894531 222.84375 155.617188 226.277344 154.71875 C 229.714844 153.820312 230.699219 150.082031 230.699219 150.082031 C 230.699219 150.082031 227.953125 147.320312 224.558594 148.210938 " fill-opacity="1" fill-rule="nonzero"/><path fill="rgb(83.529663%, 83.529663%, 83.529663%)" d="M 220.308594 170.859375 C 215.457031 167.707031 209.476562 170.445312 209.476562 170.445312 C 209.476562 170.445312 209.304688 176.964844 214.21875 180.15625 C 219.128906 183.351562 224.808594 180.417969 224.808594 180.417969 C 224.808594 180.417969 225.15625 174.015625 220.308594 170.859375 " fill-opacity="1" fill-rule="nonzero"/><g clip-path="url(#clip-2)"><path fill="rgb(83.529663%, 83.529663%, 83.529663%)" d="M 226.6875 163.441406 C 222.113281 162.644531 218.570312 166.542969 218.570312 166.542969 C 218.570312 166.542969 220.511719 171.40625 225.144531 172.214844 C 229.777344 173.027344 233.035156 169.074219 233.035156 169.074219 C 233.035156 169.074219 231.269531 164.246094 226.6875 163.441406 " fill-opacity="1" fill-rule="nonzero"/></g><path fill="rgb(83.529663%, 83.529663%, 83.529663%)" d="M 212.199219 146.429688 C 212.199219 146.429688 211.730469 146.273438 210.921875 146.101562 C 210.976562 146.027344 211.027344 145.953125 211.082031 145.878906 C 214.210938 141.820312 219.863281 142.558594 219.863281 142.558594 C 219.863281 142.558594 222.085938 147.761719 218.921875 151.867188 C 216.828125 154.59375 213.585938 155.253906 211.636719 155.386719 C 213.15625 150.796875 212.199219 146.429688 212.199219 146.429688 " fill-opacity="1" fill-rule="nonzero"/><path fill="rgb(83.529663%, 83.529663%, 83.529663%)" d="M 207.757812 161.363281 C 209.421875 159.882812 210.523438 158.175781 211.242188 156.453125 C 213.179688 156.296875 216.113281 155.695312 218.421875 153.617188 C 221.46875 154.867188 223.4375 156.761719 223.4375 156.761719 C 223.4375 156.761719 221.476562 164.910156 214.066406 167.023438 C 208.796875 168.527344 204.0625 166.042969 201.769531 164.480469 C 203.804688 163.96875 205.898438 163.019531 207.757812 161.363281 " fill-opacity="1" fill-rule="nonzero"/><path fill="rgb(83.529663%, 83.529663%, 83.529663%)" d="M 175.914062 125.484375 C 177.179688 129.332031 181.660156 130.449219 181.660156 130.449219 C 181.660156 130.449219 184.625 126.960938 183.347656 123.0625 C 182.066406 119.167969 177.664062 118.289062 177.664062 118.289062 C 177.664062 118.289062 174.652344 121.636719 175.914062 125.484375 " fill-opacity="1" fill-rule="nonzero"/><path fill="rgb(83.529663%, 83.529663%, 83.529663%)" d="M 193.976562 125.632812 C 196.457031 130.113281 202.28125 130.449219 202.28125 130.449219 C 202.28125 130.449219 205.144531 125.417969 202.628906 120.882812 C 200.121094 116.34375 194.445312 116.285156 194.445312 116.285156 C 194.445312 116.285156 191.5 121.152344 193.976562 125.632812 " fill-opacity="1" fill-rule="nonzero"/><path fill="rgb(83.529663%, 83.529663%, 83.529663%)" d="M 164.945312 183.644531 C 168.292969 179.761719 166.570312 174.207031 166.570312 174.207031 C 166.570312 174.207031 160.839844 173.300781 157.453125 177.230469 C 154.0625 181.160156 155.992188 186.476562 155.992188 186.476562 C 155.992188 186.476562 161.601562 187.527344 164.945312 183.644531 " fill-opacity="1" fill-rule="nonzero"/><path fill="rgb(83.529663%, 83.529663%, 83.529663%)" d="M 204.625 125.304688 C 204.078125 128.757812 207.085938 131.367188 207.085938 131.367188 C 207.085938 131.367188 210.746094 129.84375 211.296875 126.347656 C 211.847656 122.847656 208.804688 120.445312 208.804688 120.445312 C 208.804688 120.445312 205.167969 121.847656 204.625 125.304688 " fill-opacity="1" fill-rule="nonzero"/><path fill="rgb(83.529663%, 83.529663%, 83.529663%)" d="M 157.894531 127.320312 C 157.351562 130.777344 160.355469 133.386719 160.355469 133.386719 C 160.355469 133.386719 164.015625 131.859375 164.566406 128.363281 C 165.117188 124.863281 162.074219 122.464844 162.074219 122.464844 C 162.074219 122.464844 158.4375 123.863281 157.894531 127.320312 " fill-opacity="1" fill-rule="nonzero"/><path fill="rgb(83.529663%, 83.529663%, 83.529663%)" d="M 148.753906 129.222656 C 148.210938 132.679688 151.21875 135.289062 151.21875 135.289062 C 151.21875 135.289062 154.878906 133.761719 155.429688 130.265625 C 155.976562 126.765625 152.9375 124.367188 152.9375 124.367188 C 152.9375 124.367188 149.296875 125.765625 148.753906 129.222656 " fill-opacity="1" fill-rule="nonzero"/><g clip-path="url(#clip-3)"><path fill="rgb(83.529663%, 83.529663%, 83.529663%)" d="M 183.417969 115.679688 C 182.875 119.136719 185.878906 121.746094 185.878906 121.746094 C 185.878906 121.746094 189.539062 120.21875 190.089844 116.722656 C 190.640625 113.226562 187.597656 110.824219 187.597656 110.824219 C 187.597656 110.824219 183.960938 112.222656 183.417969 115.679688 " fill-opacity="1" fill-rule="nonzero"/></g><path fill="rgb(83.529663%, 83.529663%, 83.529663%)" d="M 149.285156 142.9375 C 151.265625 145.820312 155.25 145.667969 155.25 145.667969 C 155.25 145.667969 156.863281 142.058594 154.859375 139.132812 C 152.847656 136.210938 148.988281 136.542969 148.988281 136.542969 C 148.988281 136.542969 147.300781 140.046875 149.285156 142.9375 " fill-opacity="1" fill-rule="nonzero"/><path fill="rgb(83.529663%, 83.529663%, 83.529663%)" d="M 184.765625 132.429688 C 186.015625 138.066406 192.214844 140.277344 192.214844 140.277344 C 192.214844 140.277344 196.910156 135.738281 195.644531 130.03125 C 194.378906 124.328125 188.257812 122.464844 188.257812 122.464844 C 188.257812 122.464844 183.511719 126.796875 184.765625 132.429688 " fill-opacity="1" fill-rule="nonzero"/><path fill="rgb(83.529663%, 83.529663%, 83.529663%)" d="M 166.390625 128.8125 C 163.820312 132.667969 165.984375 137.464844 165.984375 137.464844 C 165.984375 137.464844 171.234375 137.644531 173.835938 133.742188 C 176.4375 129.839844 174.113281 125.28125 174.113281 125.28125 C 174.113281 125.28125 168.964844 124.957031 166.390625 128.8125 " fill-opacity="1" fill-rule="nonzero"/><path fill="rgb(18.03894%, 71.369934%, 68.238831%)" d="M 201.742188 191.328125 L 207.234375 191.328125 C 207.613281 191.328125 207.921875 191.019531 207.921875 190.640625 L 207.921875 188.582031 L 206.546875 188.582031 L 206.546875 189.953125 L 202.429688 189.953125 L 202.429688 185.835938 L 204.488281 185.835938 L 204.488281 184.464844 L 201.742188 184.464844 C 201.363281 184.464844 201.058594 184.769531 201.058594 185.148438 L 201.058594 190.640625 C 201.058594 191.019531 201.363281 191.328125 201.742188 191.328125 Z M 201.742188 191.328125 " fill-opacity="1" fill-rule="nonzero"/><path fill="rgb(18.03894%, 71.369934%, 68.238831%)" d="M 204.488281 187.613281 L 203.601562 186.722656 L 202.628906 187.695312 L 204.003906 189.066406 C 204.136719 189.203125 204.3125 189.269531 204.488281 189.269531 C 204.664062 189.269531 204.839844 189.203125 204.972656 189.066406 L 209.09375 184.949219 L 208.121094 183.980469 Z M 204.488281 187.613281 " fill-opacity="1" fill-rule="nonzero"/><path fill="rgb(18.03894%, 71.369934%, 68.238831%)" d="M 206.546875 198.878906 L 202.429688 198.878906 L 202.429688 194.757812 L 204.488281 194.757812 L 204.488281 193.386719 L 201.742188 193.386719 C 201.363281 193.386719 201.058594 193.695312 201.058594 194.074219 L 201.058594 199.5625 C 201.058594 199.941406 201.363281 200.25 201.742188 200.25 L 207.234375 200.25 C 207.613281 200.25 207.921875 199.941406 207.921875 199.5625 L 207.921875 197.503906 L 206.546875 197.503906 Z M 206.546875 198.878906 " fill-opacity="1" fill-rule="nonzero"/><path fill="rgb(18.03894%, 71.369934%, 68.238831%)" d="M 204.488281 196.535156 L 203.601562 195.648438 L 202.628906 196.617188 L 204.003906 197.988281 C 204.136719 198.125 204.3125 198.191406 204.488281 198.191406 C 204.664062 198.191406 204.839844 198.125 204.972656 197.988281 L 209.09375 193.871094 L 208.121094 192.902344 Z M 204.488281 196.535156 " fill-opacity="1" fill-rule="nonzero"/><path fill="rgb(18.03894%, 71.369934%, 68.238831%)" d="M 207.234375 202.308594 L 201.742188 202.308594 C 201.363281 202.308594 201.058594 202.617188 201.058594 202.996094 L 201.058594 208.488281 C 201.058594 208.867188 201.363281 209.171875 201.742188 209.171875 L 207.234375 209.171875 C 207.613281 209.171875 207.921875 208.867188 207.921875 208.488281 L 207.921875 202.996094 C 207.921875 202.617188 207.613281 202.308594 207.234375 202.308594 Z M 206.546875 207.800781 L 202.429688 207.800781 L 202.429688 203.683594 L 206.546875 203.683594 Z M 206.546875 207.800781 " fill-opacity="1" fill-rule="nonzero"/><path fill="rgb(18.03894%, 71.369934%, 68.238831%)" d="M 207.234375 211.230469 L 201.742188 211.230469 C 201.363281 211.230469 201.058594 211.539062 201.058594 211.917969 L 201.058594 217.410156 C 201.058594 217.789062 201.363281 218.09375 201.742188 218.09375 L 207.234375 218.09375 C 207.613281 218.09375 207.921875 217.789062 207.921875 217.410156 L 207.921875 211.917969 C 207.921875 211.539062 207.613281 211.230469 207.234375 211.230469 Z M 206.546875 216.722656 L 202.429688 216.722656 L 202.429688 212.605469 L 206.546875 212.605469 Z M 206.546875 216.722656 " fill-opacity="1" fill-rule="nonzero"/><g clip-path="url(#clip-4)"><path fill="rgb(18.03894%, 71.369934%, 68.238831%)" d="M 235.859375 181.917969 C 235.59375 181.652344 235.15625 181.652344 234.890625 181.917969 L 230.570312 186.238281 L 224.191406 179.859375 C 224.0625 179.730469 223.886719 179.660156 223.707031 179.660156 L 198.3125 179.660156 C 197.933594 179.660156 197.625 179.96875 197.625 180.347656 L 197.625 220.15625 C 197.625 220.535156 197.933594 220.839844 198.3125 220.839844 L 230.570312 220.839844 C 230.949219 220.839844 231.257812 220.535156 231.257812 220.15625 L 231.257812 192.984375 L 238.605469 185.636719 C 238.875 185.367188 238.875 184.933594 238.605469 184.664062 Z M 229.882812 219.46875 L 198.996094 219.46875 L 198.996094 181.03125 L 223.421875 181.03125 L 228.914062 186.523438 L 224.394531 186.523438 L 224.394531 183.089844 L 223.019531 183.089844 L 223.019531 187.210938 C 223.019531 187.589844 223.328125 187.894531 223.707031 187.894531 L 228.914062 187.894531 L 212.925781 203.882812 C 212.851562 203.957031 212.792969 204.050781 212.761719 204.152344 L 211.386719 208.269531 C 211.304688 208.515625 211.371094 208.789062 211.554688 208.972656 C 211.683594 209.101562 211.859375 209.171875 212.039062 209.171875 C 212.113281 209.171875 212.183594 209.160156 212.253906 209.136719 L 216.375 207.765625 C 216.476562 207.730469 216.566406 207.675781 216.640625 207.597656 L 229.882812 194.355469 Z M 213.710938 205.640625 L 214.886719 206.8125 L 213.125 207.402344 Z M 216.15625 206.144531 L 214.382812 204.367188 L 235.375 183.375 L 237.148438 185.148438 Z M 216.15625 206.144531 " fill-opacity="1" fill-rule="nonzero"/></g><path fill="rgb(18.03894%, 71.369934%, 68.238831%)" d="M 227.136719 216.722656 L 228.511719 216.722656 L 228.511719 218.09375 L 227.136719 218.09375 Z M 227.136719 216.722656 " fill-opacity="1" fill-rule="nonzero"/><path fill="rgb(18.03894%, 71.369934%, 68.238831%)" d="M 224.394531 216.722656 L 225.765625 216.722656 L 225.765625 218.09375 L 224.394531 218.09375 Z M 224.394531 216.722656 " fill-opacity="1" fill-rule="nonzero"/><path fill="rgb(18.03894%, 71.369934%, 68.238831%)" d="M 221.648438 216.722656 L 223.019531 216.722656 L 223.019531 218.09375 L 221.648438 218.09375 Z M 221.648438 216.722656 " fill-opacity="1" fill-rule="nonzero"/></svg>