<?xml version="1.0" encoding="UTF-8"?><svg xmlns="http://www.w3.org/2000/svg" xmlns:xlink="http://www.w3.org/1999/xlink" contentScriptType="text/ecmascript" width="375" zoomAndPan="magnify" contentStyleType="text/css" viewBox="0 0 375 374.999991" height="374.999991" preserveAspectRatio="xMidYMid meet" version="1.0"><defs><clipPath id="clip-0"><path d="M 167 158 L 211 158 L 211 221.066406 L 167 221.066406 Z M 167 158 " clip-rule="nonzero"/></clipPath><clipPath id="clip-1"><path d="M 142.300781 156 L 161 156 L 161 169 L 142.300781 169 Z M 142.300781 156 " clip-rule="nonzero"/></clipPath><clipPath id="clip-2"><path d="M 218 163 L 233.050781 163 L 233.050781 173 L 218 173 Z M 218 163 " clip-rule="nonzero"/></clipPath><clipPath id="clip-3"><path d="M 183 110.816406 L 191 110.816406 L 191 122 L 183 122 Z M 183 110.816406 " clip-rule="nonzero"/></clipPath><clipPath id="clip-4"><path d="M 196.25 186 L 236 186 L 236 225 L 196.25 225 Z M 196.25 186 " clip-rule="nonzero"/></clipPath></defs><rect x="-37.5" width="450" fill="rgb(100%, 100%, 100%)" y="-37.499999" height="449.999989" fill-opacity="1"/><rect x="-37.5" width="450" fill="rgb(100%, 100%, 100%)" y="-37.499999" height="449.999989" fill-opacity="1"/><path fill="rgb(83.529663%, 83.529663%, 83.529663%)" d="M 220.691406 140.496094 C 220.148438 143.949219 223.15625 146.5625 223.15625 146.5625 C 223.15625 146.5625 226.8125 145.035156 227.363281 141.535156 C 227.914062 138.039062 224.871094 135.640625 224.871094 135.640625 C 224.871094 135.640625 221.230469 137.039062 220.691406 140.496094 " fill-opacity="1" fill-rule="nonzero"/><path fill="rgb(83.529663%, 83.529663%, 83.529663%)" d="M 218.636719 129.222656 C 218.09375 132.679688 221.101562 135.289062 221.101562 135.289062 C 221.101562 135.289062 224.761719 133.761719 225.3125 130.265625 C 225.859375 126.765625 222.820312 124.367188 222.820312 124.367188 C 222.820312 124.367188 219.179688 125.765625 218.636719 129.222656 " fill-opacity="1" fill-rule="nonzero"/><g clip-path="url(#clip-0)"><path fill="rgb(83.529663%, 83.529663%, 83.529663%)" d="M 167.421875 172.972656 C 167.421875 172.972656 179.785156 183.199219 180.363281 197.394531 C 180.9375 211.589844 178.246094 221.085938 178.246094 221.085938 L 196.054688 221.085938 C 196.054688 221.085938 189.125 209.191406 193.453125 193.652344 C 197.789062 178.117188 205.972656 171.015625 210.210938 169.003906 L 208.378906 167.949219 C 208.378906 167.949219 201.542969 171.6875 197.304688 176.484375 C 193.070312 181.28125 190.871094 181.863281 190.234375 172.746094 C 189.578125 163.34375 189.578125 158.835938 189.578125 158.835938 L 186.878906 158.835938 C 186.878906 158.835938 186.609375 173.988281 182.46875 178.019531 C 178.324219 182.046875 175.042969 175.675781 168.5625 171.113281 L 167.421875 172.972656 " fill-opacity="1" fill-rule="nonzero"/></g><path fill="rgb(83.529663%, 83.529663%, 83.529663%)" d="M 181.125 159.324219 C 181.125 166.90625 173.800781 171.496094 173.800781 171.496094 C 173.800781 171.496094 166.476562 167.003906 166.476562 159.324219 C 166.476562 151.644531 173.800781 147.523438 173.800781 147.523438 C 173.800781 147.523438 181.125 151.738281 181.125 159.324219 " fill-opacity="1" fill-rule="nonzero"/><path fill="rgb(83.529663%, 83.529663%, 83.529663%)" d="M 185.28125 141.316406 C 184.324219 146.34375 178.890625 148.464844 178.890625 148.464844 C 178.890625 148.464844 174.601562 144.566406 175.574219 139.480469 C 176.546875 134.390625 181.917969 132.578125 181.917969 132.578125 C 181.917969 132.578125 186.242188 136.289062 185.28125 141.316406 " fill-opacity="1" fill-rule="nonzero"/><path fill="rgb(83.529663%, 83.529663%, 83.529663%)" d="M 191.246094 152.378906 C 189.074219 157.019531 183.285156 157.742188 183.285156 157.742188 C 183.285156 157.742188 180.09375 152.914062 182.289062 148.21875 C 184.488281 143.523438 190.144531 143.085938 190.144531 143.085938 C 190.144531 143.085938 193.414062 147.742188 191.246094 152.378906 " fill-opacity="1" fill-rule="nonzero"/><path fill="rgb(83.529663%, 83.529663%, 83.529663%)" d="M 164.234375 138.054688 C 165.828125 141.171875 163.789062 144.585938 163.789062 144.585938 C 163.789062 144.585938 159.832031 144.265625 158.21875 141.113281 C 156.605469 137.957031 158.746094 134.738281 158.746094 134.738281 C 158.746094 134.738281 162.640625 134.941406 164.234375 138.054688 " fill-opacity="1" fill-rule="nonzero"/><g clip-path="url(#clip-1)"><path fill="rgb(83.529663%, 83.529663%, 83.529663%)" d="M 152.484375 157.125 C 158.078125 158.628906 160.007812 164.898438 160.007812 164.898438 C 160.007812 164.898438 155.242188 169.367188 149.582031 167.84375 C 143.921875 166.324219 142.332031 160.148438 142.332031 160.148438 C 142.332031 160.148438 146.890625 155.621094 152.484375 157.125 " fill-opacity="1" fill-rule="nonzero"/></g><path fill="rgb(83.529663%, 83.529663%, 83.529663%)" d="M 163.648438 165.6875 C 167.054688 166.519531 168.316406 170.289062 168.316406 170.289062 C 168.316406 170.289062 165.492188 173.066406 162.039062 172.222656 C 158.585938 171.382812 157.535156 167.660156 157.535156 167.660156 C 157.535156 167.660156 160.234375 164.855469 163.648438 165.6875 " fill-opacity="1" fill-rule="nonzero"/><path fill="rgb(83.529663%, 83.529663%, 83.529663%)" d="M 151.796875 147.253906 C 155.445312 150.121094 154.882812 155.351562 154.882812 155.351562 C 154.882812 155.351562 149.953125 157.148438 146.261719 154.246094 C 142.566406 151.34375 143.355469 146.289062 143.355469 146.289062 C 143.355469 146.289062 148.152344 144.386719 151.796875 147.253906 " fill-opacity="1" fill-rule="nonzero"/><path fill="rgb(83.529663%, 83.529663%, 83.529663%)" d="M 173.800781 146.050781 C 173.800781 146.050781 174.234375 146.296875 174.898438 146.78125 C 174.917969 146.695312 174.941406 146.605469 174.957031 146.515625 C 175.914062 141.488281 171.59375 137.777344 171.59375 137.777344 C 171.59375 137.777344 166.21875 139.589844 165.25 144.679688 C 164.605469 148.050781 166.273438 150.898438 167.46875 152.4375 C 169.898438 148.25 173.800781 146.050781 173.800781 146.050781 " fill-opacity="1" fill-rule="nonzero"/><path fill="rgb(83.529663%, 83.529663%, 83.529663%)" d="M 165.578125 159.300781 C 165.578125 157.078125 166.125 155.121094 166.9375 153.441406 C 165.757812 151.894531 164.257812 149.316406 164.273438 146.21875 C 161.3125 144.785156 158.582031 144.585938 158.582031 144.585938 C 158.582031 144.585938 153.785156 151.46875 157.140625 158.382812 C 159.523438 163.296875 164.535156 165.164062 167.234375 165.828125 C 166.261719 163.972656 165.578125 161.785156 165.578125 159.300781 " fill-opacity="1" fill-rule="nonzero"/><path fill="rgb(83.529663%, 83.529663%, 83.529663%)" d="M 197.386719 149.824219 C 191.707031 154.878906 193.148438 163.375 193.148438 163.375 C 193.148438 163.375 201.394531 165.824219 207.144531 160.707031 C 212.890625 155.59375 211.101562 147.410156 211.101562 147.410156 C 211.101562 147.410156 203.066406 144.773438 197.386719 149.824219 " fill-opacity="1" fill-rule="nonzero"/><path fill="rgb(83.529663%, 83.529663%, 83.529663%)" d="M 208.097656 134.746094 C 204.972656 138.804688 207.003906 144.253906 207.003906 144.253906 C 207.003906 144.253906 212.777344 144.84375 215.941406 140.734375 C 219.105469 136.621094 216.882812 131.421875 216.882812 131.421875 C 216.882812 131.421875 211.222656 130.683594 208.097656 134.746094 " fill-opacity="1" fill-rule="nonzero"/><path fill="rgb(83.529663%, 83.529663%, 83.529663%)" d="M 195.84375 137.683594 C 193.816406 142.386719 197.132812 147.171875 197.132812 147.171875 C 197.132812 147.171875 202.875 146.324219 204.925781 141.566406 C 206.976562 136.804688 203.535156 132.308594 203.535156 132.308594 C 203.535156 132.308594 197.867188 132.980469 195.84375 137.683594 " fill-opacity="1" fill-rule="nonzero"/><path fill="rgb(83.529663%, 83.529663%, 83.529663%)" d="M 224.558594 148.210938 C 221.164062 149.101562 219.96875 152.894531 219.96875 152.894531 C 219.96875 152.894531 222.84375 155.617188 226.277344 154.71875 C 229.714844 153.820312 230.699219 150.082031 230.699219 150.082031 C 230.699219 150.082031 227.953125 147.320312 224.558594 148.210938 " fill-opacity="1" fill-rule="nonzero"/><path fill="rgb(83.529663%, 83.529663%, 83.529663%)" d="M 220.308594 170.859375 C 215.457031 167.707031 209.476562 170.445312 209.476562 170.445312 C 209.476562 170.445312 209.304688 176.964844 214.21875 180.15625 C 219.128906 183.351562 224.808594 180.417969 224.808594 180.417969 C 224.808594 180.417969 225.15625 174.015625 220.308594 170.859375 " fill-opacity="1" fill-rule="nonzero"/><g clip-path="url(#clip-2)"><path fill="rgb(83.529663%, 83.529663%, 83.529663%)" d="M 226.6875 163.441406 C 222.113281 162.644531 218.570312 166.542969 218.570312 166.542969 C 218.570312 166.542969 220.511719 171.40625 225.144531 172.214844 C 229.777344 173.027344 233.035156 169.074219 233.035156 169.074219 C 233.035156 169.074219 231.269531 164.246094 226.6875 163.441406 " fill-opacity="1" fill-rule="nonzero"/></g><path fill="rgb(83.529663%, 83.529663%, 83.529663%)" d="M 212.199219 146.429688 C 212.199219 146.429688 211.730469 146.273438 210.921875 146.101562 C 210.976562 146.027344 211.027344 145.953125 211.082031 145.878906 C 214.210938 141.820312 219.863281 142.558594 219.863281 142.558594 C 219.863281 142.558594 222.085938 147.761719 218.921875 151.867188 C 216.828125 154.59375 213.585938 155.253906 211.636719 155.386719 C 213.15625 150.796875 212.199219 146.429688 212.199219 146.429688 " fill-opacity="1" fill-rule="nonzero"/><path fill="rgb(83.529663%, 83.529663%, 83.529663%)" d="M 207.757812 161.363281 C 209.421875 159.882812 210.523438 158.175781 211.242188 156.453125 C 213.179688 156.296875 216.113281 155.695312 218.421875 153.617188 C 221.46875 154.867188 223.4375 156.761719 223.4375 156.761719 C 223.4375 156.761719 221.476562 164.910156 214.066406 167.023438 C 208.796875 168.527344 204.0625 166.042969 201.769531 164.480469 C 203.804688 163.96875 205.898438 163.019531 207.757812 161.363281 " fill-opacity="1" fill-rule="nonzero"/><path fill="rgb(83.529663%, 83.529663%, 83.529663%)" d="M 175.914062 125.484375 C 177.179688 129.332031 181.660156 130.449219 181.660156 130.449219 C 181.660156 130.449219 184.625 126.960938 183.347656 123.0625 C 182.066406 119.167969 177.664062 118.289062 177.664062 118.289062 C 177.664062 118.289062 174.652344 121.636719 175.914062 125.484375 " fill-opacity="1" fill-rule="nonzero"/><path fill="rgb(83.529663%, 83.529663%, 83.529663%)" d="M 193.976562 125.632812 C 196.457031 130.113281 202.28125 130.449219 202.28125 130.449219 C 202.28125 130.449219 205.144531 125.417969 202.628906 120.882812 C 200.121094 116.34375 194.445312 116.285156 194.445312 116.285156 C 194.445312 116.285156 191.5 121.152344 193.976562 125.632812 " fill-opacity="1" fill-rule="nonzero"/><path fill="rgb(83.529663%, 83.529663%, 83.529663%)" d="M 164.945312 183.644531 C 168.292969 179.761719 166.570312 174.207031 166.570312 174.207031 C 166.570312 174.207031 160.839844 173.300781 157.453125 177.230469 C 154.0625 181.160156 155.992188 186.476562 155.992188 186.476562 C 155.992188 186.476562 161.601562 187.527344 164.945312 183.644531 " fill-opacity="1" fill-rule="nonzero"/><path fill="rgb(83.529663%, 83.529663%, 83.529663%)" d="M 204.625 125.304688 C 204.078125 128.757812 207.085938 131.367188 207.085938 131.367188 C 207.085938 131.367188 210.746094 129.84375 211.296875 126.347656 C 211.847656 122.847656 208.804688 120.445312 208.804688 120.445312 C 208.804688 120.445312 205.167969 121.847656 204.625 125.304688 " fill-opacity="1" fill-rule="nonzero"/><path fill="rgb(83.529663%, 83.529663%, 83.529663%)" d="M 157.894531 127.320312 C 157.351562 130.777344 160.355469 133.386719 160.355469 133.386719 C 160.355469 133.386719 164.015625 131.859375 164.566406 128.363281 C 165.117188 124.863281 162.074219 122.464844 162.074219 122.464844 C 162.074219 122.464844 158.4375 123.863281 157.894531 127.320312 " fill-opacity="1" fill-rule="nonzero"/><path fill="rgb(83.529663%, 83.529663%, 83.529663%)" d="M 148.753906 129.222656 C 148.210938 132.679688 151.21875 135.289062 151.21875 135.289062 C 151.21875 135.289062 154.878906 133.761719 155.429688 130.265625 C 155.976562 126.765625 152.9375 124.367188 152.9375 124.367188 C 152.9375 124.367188 149.296875 125.765625 148.753906 129.222656 " fill-opacity="1" fill-rule="nonzero"/><g clip-path="url(#clip-3)"><path fill="rgb(83.529663%, 83.529663%, 83.529663%)" d="M 183.417969 115.679688 C 182.875 119.136719 185.878906 121.746094 185.878906 121.746094 C 185.878906 121.746094 189.539062 120.21875 190.089844 116.722656 C 190.640625 113.226562 187.597656 110.824219 187.597656 110.824219 C 187.597656 110.824219 183.960938 112.222656 183.417969 115.679688 " fill-opacity="1" fill-rule="nonzero"/></g><path fill="rgb(83.529663%, 83.529663%, 83.529663%)" d="M 149.285156 142.9375 C 151.265625 145.820312 155.25 145.667969 155.25 145.667969 C 155.25 145.667969 156.863281 142.058594 154.859375 139.132812 C 152.847656 136.210938 148.988281 136.542969 148.988281 136.542969 C 148.988281 136.542969 147.300781 140.046875 149.285156 142.9375 " fill-opacity="1" fill-rule="nonzero"/><path fill="rgb(83.529663%, 83.529663%, 83.529663%)" d="M 184.765625 132.429688 C 186.015625 138.066406 192.214844 140.277344 192.214844 140.277344 C 192.214844 140.277344 196.910156 135.738281 195.644531 130.03125 C 194.378906 124.328125 188.257812 122.464844 188.257812 122.464844 C 188.257812 122.464844 183.511719 126.796875 184.765625 132.429688 " fill-opacity="1" fill-rule="nonzero"/><path fill="rgb(83.529663%, 83.529663%, 83.529663%)" d="M 166.390625 128.8125 C 163.820312 132.667969 165.984375 137.464844 165.984375 137.464844 C 165.984375 137.464844 171.234375 137.644531 173.835938 133.742188 C 176.4375 129.839844 174.113281 125.28125 174.113281 125.28125 C 174.113281 125.28125 168.964844 124.957031 166.390625 128.8125 " fill-opacity="1" fill-rule="nonzero"/><g clip-path="url(#clip-4)"><path fill="rgb(18.03894%, 71.369934%, 68.238831%)" d="M 211.863281 186 C 203.351562 186 196.425781 192.910156 196.425781 201.402344 C 196.425781 209.894531 203.351562 216.804688 211.863281 216.804688 C 215.269531 216.804688 218.417969 215.699219 220.976562 213.828125 C 220.976562 213.828125 222.691406 215.503906 222.773438 215.53125 C 222.761719 216.335938 223.0625 217.140625 223.671875 217.75 L 230.0625 224.125 C 230.644531 224.707031 231.421875 225.027344 232.246094 225.027344 C 233.070312 225.027344 233.847656 224.707031 234.429688 224.125 L 234.640625 223.914062 C 235.84375 222.710938 235.84375 220.757812 234.640625 219.554688 L 228.253906 213.183594 C 227.667969 212.601562 226.894531 212.28125 226.070312 212.28125 C 226.054688 212.28125 226.042969 212.285156 226.027344 212.285156 C 226 212.203125 224.320312 210.492188 224.320312 210.492188 C 226.195312 207.941406 227.304688 204.800781 227.304688 201.402344 C 227.304688 192.910156 220.378906 186 211.863281 186 Z M 211.863281 187.230469 C 219.695312 187.230469 226.070312 193.589844 226.070312 201.402344 C 226.070312 209.214844 219.695312 215.574219 211.863281 215.574219 C 204.03125 215.574219 197.660156 209.214844 197.660156 201.402344 C 197.660156 193.589844 204.03125 187.230469 211.863281 187.230469 Z M 211.863281 189.695312 C 205.394531 189.695312 200.128906 194.949219 200.128906 201.402344 C 200.128906 201.742188 200.40625 202.019531 200.746094 202.019531 C 201.089844 202.019531 201.363281 201.742188 201.363281 201.402344 C 201.363281 195.628906 206.074219 190.929688 211.863281 190.929688 C 214.539062 190.929688 216.972656 191.9375 218.828125 193.585938 L 211.609375 200.785156 L 211.246094 200.785156 C 210.226562 200.785156 209.394531 199.957031 209.394531 198.9375 L 209.394531 197.707031 C 209.394531 196.6875 210.226562 195.859375 211.246094 195.859375 L 211.246094 198.9375 C 211.246094 199.277344 211.523438 199.554688 211.863281 199.554688 C 212.207031 199.554688 212.480469 199.277344 212.480469 198.9375 L 212.480469 195.859375 C 213 195.859375 213.484375 196.066406 213.835938 196.445312 C 214.070312 196.695312 214.460938 196.710938 214.710938 196.476562 C 214.960938 196.246094 214.976562 195.855469 214.742188 195.605469 C 214.160156 194.984375 213.335938 194.625 212.480469 194.625 L 212.480469 193.394531 C 212.480469 193.054688 212.207031 192.777344 211.863281 192.777344 C 211.523438 192.777344 211.246094 193.054688 211.246094 193.394531 L 211.246094 194.625 C 209.542969 194.625 208.160156 196.007812 208.160156 197.707031 L 208.160156 198.9375 C 208.160156 200.371094 209.148438 201.570312 210.480469 201.910156 L 204.441406 207.9375 L 203.566406 208.808594 C 203.324219 209.050781 203.324219 209.441406 203.566406 209.679688 C 203.6875 209.800781 203.84375 209.859375 204.003906 209.859375 C 204.160156 209.859375 204.320312 209.800781 204.441406 209.679688 L 204.886719 209.230469 L 212.121094 202.019531 L 212.480469 202.019531 C 213.503906 202.019531 214.335938 202.847656 214.335938 203.867188 L 214.335938 205.097656 C 214.335938 206.117188 213.503906 206.949219 212.480469 206.949219 L 211.246094 206.949219 C 210.707031 206.949219 210.199219 206.714844 209.84375 206.308594 C 209.621094 206.050781 209.230469 206.023438 208.972656 206.246094 C 208.714844 206.46875 208.6875 206.859375 208.910156 207.117188 C 209.5 207.792969 210.351562 208.179688 211.246094 208.179688 L 211.246094 209.414062 C 211.246094 209.753906 211.523438 210.027344 211.863281 210.027344 C 212.207031 210.027344 212.480469 209.753906 212.480469 209.414062 L 212.480469 208.179688 C 214.183594 208.179688 215.570312 206.796875 215.570312 205.097656 L 215.570312 203.867188 C 215.570312 202.433594 214.578125 201.238281 213.246094 200.894531 L 219.703125 194.457031 C 221.351562 196.308594 222.363281 198.734375 222.363281 201.402344 C 222.363281 207.179688 217.652344 211.875 211.863281 211.875 C 211.523438 211.875 211.246094 212.152344 211.246094 212.492188 C 211.246094 212.832031 211.523438 213.109375 211.863281 213.109375 C 218.335938 213.109375 223.597656 207.859375 223.597656 201.402344 C 223.597656 198.1875 222.292969 195.269531 220.179688 193.152344 C 220.171875 193.144531 220.171875 193.132812 220.164062 193.125 C 220.152344 193.117188 220.140625 193.113281 220.132812 193.105469 C 218.011719 191 215.085938 189.695312 211.863281 189.695312 Z M 211.863281 203.25 C 211.523438 203.25 211.246094 203.527344 211.246094 203.867188 L 211.246094 205.097656 C 211.246094 205.441406 211.523438 205.714844 211.863281 205.714844 C 212.207031 205.714844 212.480469 205.441406 212.480469 205.097656 L 212.480469 203.867188 C 212.480469 203.527344 212.207031 203.25 211.863281 203.25 Z M 202.402344 203.34375 C 202.324219 203.332031 202.242188 203.335938 202.160156 203.359375 L 200.964844 203.679688 C 200.636719 203.765625 200.441406 204.105469 200.527344 204.433594 C 200.601562 204.707031 200.851562 204.890625 201.125 204.890625 C 201.175781 204.890625 201.230469 204.882812 201.285156 204.867188 L 202.476562 204.550781 C 202.808594 204.460938 203.003906 204.125 202.917969 203.796875 C 202.851562 203.546875 202.640625 203.375 202.402344 203.34375 Z M 203.230469 205.71875 C 203.148438 205.730469 203.070312 205.757812 203 205.796875 L 201.929688 206.414062 C 201.632812 206.585938 201.53125 206.960938 201.703125 207.257812 C 201.816406 207.453125 202.023438 207.5625 202.238281 207.5625 C 202.339844 207.5625 202.445312 207.535156 202.542969 207.480469 L 203.613281 206.863281 C 203.910156 206.695312 204.011719 206.320312 203.839844 206.023438 C 203.714844 205.800781 203.46875 205.691406 203.230469 205.71875 Z M 207 209.328125 C 206.761719 209.296875 206.515625 209.410156 206.390625 209.632812 L 205.769531 210.699219 C 205.601562 210.992188 205.703125 211.371094 205.996094 211.539062 C 206.09375 211.597656 206.199219 211.621094 206.304688 211.621094 C 206.519531 211.621094 206.726562 211.511719 206.839844 211.316406 L 207.457031 210.246094 C 207.628906 209.953125 207.527344 209.578125 207.230469 209.40625 C 207.160156 209.363281 207.078125 209.339844 207 209.328125 Z M 209.222656 210.316406 C 208.984375 210.347656 208.777344 210.519531 208.710938 210.765625 L 208.390625 211.957031 C 208.300781 212.285156 208.496094 212.621094 208.828125 212.710938 C 208.878906 212.726562 208.933594 212.730469 208.988281 212.730469 C 209.257812 212.730469 209.507812 212.550781 209.582031 212.273438 L 209.902344 211.085938 C 209.992188 210.757812 209.796875 210.417969 209.464844 210.328125 C 209.382812 210.308594 209.300781 210.304688 209.222656 210.316406 Z M 223.542969 211.460938 L 224.699219 212.613281 C 224.402344 212.761719 224.125 212.941406 223.886719 213.183594 L 223.671875 213.394531 C 223.429688 213.636719 223.25 213.917969 223.105469 214.207031 L 221.945312 213.054688 C 222.515625 212.5625 223.050781 212.03125 223.542969 211.460938 Z M 226.070312 213.511719 C 226.566406 213.511719 227.027344 213.707031 227.378906 214.054688 L 233.769531 220.429688 C 234.488281 221.148438 234.488281 222.320312 233.769531 223.042969 L 233.554688 223.253906 C 232.855469 223.953125 231.636719 223.953125 230.933594 223.253906 L 224.546875 216.878906 C 223.824219 216.160156 223.824219 214.988281 224.546875 214.265625 L 224.757812 214.054688 C 225.109375 213.707031 225.574219 213.511719 226.070312 213.511719 Z M 226.070312 213.511719 " fill-opacity="1" fill-rule="nonzero"/></g></svg>